<?xml version="1.0" encoding="UTF-8" standalone="no"?>
<!-- Created with Inkscape (http://www.inkscape.org/) -->

<svg
   xmlns:dc="http://purl.org/dc/elements/1.1/"
   xmlns:cc="http://creativecommons.org/ns#"
   xmlns:rdf="http://www.w3.org/1999/02/22-rdf-syntax-ns#"
   xmlns:svg="http://www.w3.org/2000/svg"
   xmlns="http://www.w3.org/2000/svg"
   xmlns:sodipodi="http://sodipodi.sourceforge.net/DTD/sodipodi-0.dtd"
   xmlns:inkscape="http://www.inkscape.org/namespaces/inkscape"
   width="210mm"
   height="297mm"
   viewBox="0 0 210 297"
   version="1.1"
   id="svg4846"
   inkscape:version="0.92.5 (2060ec1f9f, 2020-04-08)"
   sodipodi:docname="linkedin.svg">
  <defs
     id="defs4840" />
  <sodipodi:namedview
     id="base"
     pagecolor="#ffffff"
     bordercolor="#666666"
     borderopacity="1.0"
     inkscape:pageopacity="0.0"
     inkscape:pageshadow="2"
     inkscape:zoom="0.35"
     inkscape:cx="-125.71429"
     inkscape:cy="560"
     inkscape:document-units="mm"
     inkscape:current-layer="layer1"
     showgrid="false"
     inkscape:window-width="1920"
     inkscape:window-height="946"
     inkscape:window-x="0"
     inkscape:window-y="27"
     inkscape:window-maximized="1" />
  <metadata
     id="metadata4843">
    <rdf:RDF>
      <cc:Work
         rdf:about="">
        <dc:format>image/svg+xml</dc:format>
        <dc:type
           rdf:resource="http://purl.org/dc/dcmitype/StillImage" />
        <dc:title></dc:title>
      </cc:Work>
    </rdf:RDF>
  </metadata>
  <g
     inkscape:label="Layer 1"
     inkscape:groupmode="layer"
     id="layer1">
    <rect
       style="opacity:1;fill:#000080;fill-opacity:1;stroke:none;stroke-width:0.1;stroke-miterlimit:4;stroke-dasharray:none;stroke-opacity:1"
       id="rect5491"
       width="360.58929"
       height="260.80356"
       x="-490.6131"
       y="-22.767859"
       rx="3.4413033"
       ry="3.4413033" />
    <g
       id="g5470"
       transform="matrix(1.6509554,0,0,1.6509554,565.95003,-47.981441)"
       style="fill:#ffffff">
      <g
         id="g5464"
         style="fill:#ffffff">
        <path
           style="opacity:1;fill:#ffffff;fill-opacity:1;stroke:none;stroke-width:0.28571427;stroke-miterlimit:4;stroke-dasharray:none;stroke-opacity:1"
           d="M -344.5631,145.12916 V 100.15 h 13.60715 13.60714 v 44.97916 44.97917 h -13.60714 -13.60715 z"
           id="path5455"
           inkscape:connector-curvature="0" />
        <path
           style="opacity:1;fill:#ffffff;fill-opacity:1;stroke:none;stroke-width:0.28571427;stroke-miterlimit:4;stroke-dasharray:none;stroke-opacity:1"
           d="m -334.74061,86.592492 c -7.82599,-2.38056 -12.09034,-8.001976 -12.09034,-15.937897 0,-15.747304 20.75884,-21.438068 29.07742,-7.971192 5.50102,8.905563 1.06931,20.52016 -8.96701,23.500625 -4.1031,1.218491 -5.17729,1.273199 -8.02007,0.408464 z"
           id="path5457"
           inkscape:connector-curvature="0" />
        <path
           style="opacity:1;fill:#ffffff;fill-opacity:1;stroke:none;stroke-width:0.28571427;stroke-miterlimit:4;stroke-dasharray:none;stroke-opacity:1"
           d="M -299.20595,145.12916 V 100.15 h 13.22916 13.22917 l 0.024,6.23661 c 0.022,5.70782 0.11989,6.10841 1.15445,4.7247 3.15195,-4.21569 7.81563,-8.17685 12.12444,-10.29808 3.9554,-1.947233 5.99447,-2.430783 11.59751,-2.750254 15.08327,-0.86001 25.47715,3.950314 30.66753,14.193044 4.10558,8.10196 4.36637,10.62489 4.70698,45.53535 l 0.3153,32.31696 h -13.60007 -13.60007 l -0.30057,-27.78125 c -0.32357,-29.90956 -0.59059,-32.03042 -4.57787,-36.36161 -5.60581,-6.08932 -19.135,-4.91365 -23.77294,2.06584 -3.22065,4.84666 -3.44863,6.95644 -3.78759,35.05172 l -0.32606,27.0253 h -13.54169 -13.5417 z"
           id="path5459"
           inkscape:connector-curvature="0" />
      </g>
    </g>
  </g>
</svg>
