<?xml version="1.0" encoding="UTF-8" standalone="no"?>
<!-- Created with Inkscape (http://www.inkscape.org/) -->

<svg
   xmlns:dc="http://purl.org/dc/elements/1.1/"
   xmlns:cc="http://creativecommons.org/ns#"
   xmlns:rdf="http://www.w3.org/1999/02/22-rdf-syntax-ns#"
   xmlns:svg="http://www.w3.org/2000/svg"
   xmlns="http://www.w3.org/2000/svg"
   xmlns:sodipodi="http://sodipodi.sourceforge.net/DTD/sodipodi-0.dtd"
   xmlns:inkscape="http://www.inkscape.org/namespaces/inkscape"
   width="31cm"
   height="17cm"
   viewBox="0 0 309.99999 170"
   version="1.1"
   id="svg5931"
   inkscape:version="0.92.5 (2060ec1f9f, 2020-04-08)"
   sodipodi:docname="usa.svg">
  <defs
     id="defs5925" />
  <sodipodi:namedview
     id="base"
     pagecolor="#ffffff"
     bordercolor="#666666"
     borderopacity="1.0"
     inkscape:pageopacity="0.0"
     inkscape:pageshadow="2"
     inkscape:zoom="0.35"
     inkscape:cx="-122.85714"
     inkscape:cy="560"
     inkscape:document-units="mm"
     inkscape:current-layer="layer1"
     showgrid="false"
     inkscape:window-width="1920"
     inkscape:window-height="946"
     inkscape:window-x="0"
     inkscape:window-y="27"
     inkscape:window-maximized="1"
     units="cm" />
  <metadata
     id="metadata5928">
    <rdf:RDF>
      <cc:Work
         rdf:about="">
        <dc:format>image/svg+xml</dc:format>
        <dc:type
           rdf:resource="http://purl.org/dc/dcmitype/StillImage" />
        <dc:title></dc:title>
      </cc:Work>
    </rdf:RDF>
  </metadata>
  <g
     inkscape:label="Layer 1"
     inkscape:groupmode="layer"
     id="layer1"
     transform="translate(0,-127.00002)">
    <g
       id="g940"
       transform="matrix(1.0604936,0,0,1.0604936,4.1327954,29.50965)">
      <path
         inkscape:connector-curvature="0"
         id="path5890"
         d="m -1.4464941,242.11178 v -4.73482 l 0.66161381,-0.12642 c 0.36388884,-0.0695 65.01866229,-0.12763 143.67724029,-0.12885 l 143.01563,-0.004 v 4.86365 4.86359 H 142.23073 -1.4464941 Z"
         style="opacity:1;fill:#ff0000;fill-opacity:1;stroke:none;stroke-width:0.10294449;stroke-miterlimit:4;stroke-dasharray:none;stroke-opacity:1;paint-order:fill markers stroke" />
      <path
         inkscape:connector-curvature="0"
         id="path5892"
         d="m -0.28890607,223.74721 -1.15758803,-0.0838 v -4.8836 -4.88366 l 143.6091341,-0.004 143.60916,-0.004 v 4.76694 4.83408 c 0,0.0992 -284.7047544,0.35543 -286.06070607,0.25734 z"
         style="opacity:1;fill:#ff0000;fill-opacity:1;stroke:none;stroke-width:0.10294449;stroke-miterlimit:4;stroke-dasharray:none;stroke-opacity:1;paint-order:fill markers stroke" />
      <path
         inkscape:connector-curvature="0"
         id="path5894"
         d="m -1.4464941,195.64026 v -4.90272 H 138.21322 c 76.81286,0 141.38348,-0.0799 143.4903,-0.17628 l 3.83057,-0.17526 0.0548,3.9214 c 0.03,2.15676 0.12818,4.4423 0.21787,5.079 l 0.16316,1.15758 H 142.26167 -1.4464941 Z m 286.5373541,4.35799 c 0.30638,-0.198 0.17011,-0.26403 -0.54474,-0.26403 -0.71485,0 -0.85112,0.0661 -0.54476,0.26403 0.22471,0.14519 0.46986,0.26401 0.54476,0.26401 0.0749,0 0.32004,-0.11884 0.54474,-0.26401 z"
         style="opacity:1;fill:#ff0000;fill-opacity:1;stroke:none;stroke-width:0.10294449;stroke-miterlimit:4;stroke-dasharray:none;stroke-opacity:1;paint-order:fill markers stroke" />
      <path
         inkscape:connector-curvature="0"
         id="path5896"
         d="m 114.64507,177.07014 c -0.19107,-0.19107 -0.24885,-0.75894 -0.15036,-1.47755 0.088,-0.64197 0.0678,-1.38853 -0.0449,-1.65903 -0.11271,-0.27045 -0.24779,-1.49742 -0.3002,-2.7265 -0.0745,-1.7461 -0.003,-2.3268 0.32562,-2.65565 0.29828,-0.29831 0.32071,-0.42092 0.0771,-0.42092 -0.19301,0 -0.11199,-0.17544 0.18482,-0.39988 0.46219,-0.3496 11.22759,-0.40102 85.57227,-0.40859 l 85.04357,-0.008 0.15115,0.61288 c 0.0831,0.33705 0.11614,2.57392 0.0733,4.97083 l -0.0777,4.35799 -85.27202,0.0626 c -63.51348,0.0468 -85.35121,-0.0164 -85.58236,-0.24757 z m 1.7672,-0.66678 c 0.13301,-0.39938 -0.5506,-0.65817 -1.00185,-0.37927 -0.19287,0.11912 -0.26225,0.35977 -0.15418,0.53461 0.23543,0.38095 1.01224,0.27659 1.15603,-0.15534 z"
         style="opacity:1;fill:#ff0000;fill-opacity:1;stroke:none;stroke-width:0.10294449;stroke-miterlimit:4;stroke-dasharray:none;stroke-opacity:1;paint-order:fill markers stroke" />
      <path
         inkscape:connector-curvature="0"
         id="path5898"
         d="m 114.7696,153.7428 c -0.34275,-0.0661 -0.46745,-0.40689 -0.49825,-1.36187 -0.0625,-1.93758 0.0185,-2.80985 0.3662,-3.94589 0.26945,-0.88032 0.24559,-1.15987 -0.15723,-1.8418 -0.57147,-0.96736 -0.39868,-1.67135 0.53256,-2.16972 0.51991,-0.27827 0.87977,-0.29893 1.4508,-0.0834 0.48394,0.18266 1.34298,0.20439 2.36827,0.0598 1.65063,-0.23273 163.0492,-0.27031 165.67115,-0.0387 l 1.45501,0.12858 -0.15447,0.85724 c -0.21563,1.19647 -0.26076,7.57833 -0.0571,8.07515 0.14866,0.36263 -9.42229,0.40854 -85.17615,0.40854 -46.93898,0 -85.54933,-0.0396 -85.80077,-0.0882 z m 2.53894,-6.72129 c 0,-0.22471 -0.12257,-0.40854 -0.27238,-0.40854 -0.1498,0 -0.27236,0.18383 -0.27236,0.40854 0,0.22471 0.12257,0.40855 0.27236,0.40855 0.14981,0 0.27238,-0.18384 0.27238,-0.40855 z"
         style="opacity:1;fill:#ff0000;fill-opacity:1;stroke:none;stroke-width:0.10294449;stroke-miterlimit:4;stroke-dasharray:none;stroke-opacity:1;paint-order:fill markers stroke" />
      <path
         inkscape:connector-curvature="0"
         id="path5900"
         d="m 115.47002,130.89337 c -0.63668,-0.0602 -1.17302,-0.25558 -1.19189,-0.43424 -0.0189,-0.17861 -0.003,-1.42791 0.037,-2.77617 0.0392,-1.34825 0.0854,-3.4319 0.10241,-4.63037 l 0.031,-2.17898 2.04281,-0.0135 c 10.68439,-0.0696 168.98725,-0.0983 169.05497,-0.0306 0.0494,0.0494 0.12033,2.31637 0.1576,5.03781 l 0.0677,4.94803 -84.02737,0.004 c -46.21504,0.004 -84.27246,0.0441 -84.57207,0.0937 -0.29962,0.0495 -1.06567,0.0407 -1.70235,-0.0193 z"
         style="opacity:1;fill:#ff0000;fill-opacity:1;stroke:none;stroke-width:0.10294449;stroke-miterlimit:4;stroke-dasharray:none;stroke-opacity:1;paint-order:fill markers stroke" />
      <path
         inkscape:connector-curvature="0"
         id="path5902"
         d="m 115.41581,107.27166 c -0.20544,-0.24754 -0.53775,-0.38706 -0.73846,-0.31006 -0.41009,0.15737 -0.4092,0.15963 -0.52575,-1.34094 -0.12443,-1.60257 0.0801,-2.32905 0.5998,-2.12963 0.30757,0.11804 0.40561,0.0318 0.33768,-0.29638 -0.0526,-0.25446 -0.20458,-0.44575 -0.33764,-0.42501 -0.40707,0.0634 -0.7094,-0.65849 -0.51707,-1.23457 0.1,-0.2996 0.15258,-1.16832 0.11686,-1.930434 -0.0767,-1.632489 0.22097,-1.980186 1.74701,-2.040583 0.5908,-0.02346 39.0397,-0.02914 85.44199,-0.01244 l 84.36783,0.02989 v 4.904837 4.90489 h -83.85315 c -46.11925,0 -84.39592,0.0744 -85.0593,0.16529 -0.93285,0.12791 -1.29081,0.0634 -1.57971,-0.28475 z m 0.80323,-1.24242 c 0,-0.14982 -0.12258,-0.27239 -0.27237,-0.27239 -0.14981,0 -0.27238,0.12263 -0.27238,0.27239 0,0.14978 0.12258,0.27236 0.27238,0.27236 0.14981,0 0.27237,-0.12264 0.27237,-0.27236 z"
         style="opacity:1;fill:#ff0000;fill-opacity:1;stroke:none;stroke-width:0.10294449;stroke-miterlimit:4;stroke-dasharray:none;stroke-opacity:1;paint-order:fill markers stroke" />
      <path
         inkscape:connector-curvature="0"
         id="path5904"
         d="m 115.20383,107.16778 c -0.83407,-0.43422 -0.87935,-0.53772 -0.88522,-2.02375 -0.004,-1.21331 0.0858,-1.56615 0.40238,-1.56615 0.54577,0 0.52362,-0.7147 -0.0288,-0.92665 -0.36333,-0.13945 -0.42048,-0.53789 -0.33793,-2.35581 0.0708,-1.559006 0.2161,-2.261855 0.50539,-2.444747 0.25188,-0.159242 32.79652,-0.258277 85.72713,-0.26085 l 85.32115,-0.0042 v 4.902747 4.90276 h -84.54984 c -46.50242,0 -84.71304,0.0527 -84.91256,0.11708 -0.19951,0.0645 -0.7583,-0.0888 -1.24177,-0.34047 z m 1.01521,-1.13854 c 0,-0.14982 -0.12258,-0.27239 -0.27237,-0.27239 -0.14981,0 -0.27238,0.12263 -0.27238,0.27239 0,0.14978 0.12258,0.27236 0.27238,0.27236 0.14981,0 0.27237,-0.12264 0.27237,-0.27236 z"
         style="opacity:1;fill:#ff0000;fill-opacity:1;stroke:none;stroke-width:0.10294449;stroke-miterlimit:4;stroke-dasharray:none;stroke-opacity:1;paint-order:fill markers stroke" />
      <path
         inkscape:connector-curvature="0"
         id="path5906"
         d="M -1.4464941,137.35437 V 97.31626 l 56.6429821,0.0072 c 44.236618,0.0057 56.687952,0.07974 56.848252,0.338994 0.11284,0.182552 0.21431,2.259233 0.22534,4.614866 0.0157,3.36003 -0.0592,4.31336 -0.34793,4.42412 -0.20239,0.0776 -0.2917,0.26467 -0.19846,0.41552 0.0932,0.15089 0.0398,0.27431 -0.11886,0.27431 -0.15865,0 -0.28846,-0.12263 -0.28846,-0.27238 0,-0.14982 -0.12829,-0.2724 -0.28508,-0.2724 -0.39844,0 0.61813,1.34281 1.02453,1.35333 0.18199,0.004 0.45776,0.24563 0.61284,0.53539 0.32081,0.59947 0.39497,9.10825 0.0777,8.91214 -0.11243,-0.0694 -0.20429,0.41809 -0.20429,1.08337 0,0.6653 -0.13458,1.29709 -0.29918,1.40394 -0.16456,0.10682 -0.2474,0.50078 -0.18408,0.8753 0.0634,0.3745 0.16198,2.70333 0.21925,5.17509 0.1127,4.86193 0.21228,6.1675 0.49207,6.44725 0.31413,0.31414 0.21139,9.07809 -0.10641,9.07809 -0.19299,0 -0.27178,1.79083 -0.24067,5.47025 0.0315,3.72171 -0.0509,5.56744 -0.25782,5.77433 -0.42267,0.42265 -0.3802,1.4271 0.0764,1.80602 0.21714,0.18021 0.31563,0.56351 0.22945,0.89305 -0.10312,0.39417 -0.0509,0.51553 0.16431,0.38247 0.18527,-0.11438 0.31528,-0.0265 0.31528,0.21373 0,0.22472 -0.11786,0.4814 -0.26197,0.57044 -0.1677,0.1037 -0.1677,0.40985 0,0.85094 0.14409,0.379 0.26197,2.59231 0.26197,4.91861 0,4.00049 -0.0295,4.23726 -0.54475,4.37198 -0.29961,0.0784 -0.54475,0.15962 -0.54475,0.18059 0,0.0208 0.11858,0.45131 0.26335,0.95637 0.1753,0.61126 0.16882,1.09477 -0.0195,1.44641 -0.21111,0.39447 -0.17434,0.69361 0.14523,1.18128 0.53931,0.82312 0.5398,1.33781 0.001,2.15853 -0.35584,0.5431 -0.37295,0.82679 -0.10398,1.72462 0.259,0.86446 0.24835,1.2281 -0.0543,1.85987 l -0.37625,0.78532 -56.582005,0.0688 -56.5820229,0.0687 z m 8.7374102,35.77647 c 0.5955647,-0.51245 1.0020037,-0.46243 1.1954479,0.14707 0.1167095,0.36786 0.4801842,0.54719 1.2594514,0.62152 1.0151036,0.0968 1.1269946,0.0379 1.5270826,-0.80532 0.323512,-0.68179 0.353778,-0.98773 0.120712,-1.22077 -0.529599,-0.52956 -0.348269,-1.18227 0.623068,-2.2427 1.098919,-1.19976 0.920236,-1.60257 -0.755153,-1.70238 -1.233849,-0.0735 -1.8180564,-0.5035 -1.8846222,-1.38721 -0.024459,-0.32426 -0.2021825,-0.58953 -0.3950115,-0.58953 -0.1928289,0 -0.3505869,-0.12263 -0.3505869,-0.2724 0,-0.37929 -0.9116106,-0.34129 -1.307394,0.0545 -0.1797708,0.17975 -0.3268597,0.65691 -0.3268597,1.06036 0,1.07764 -1.7640646,1.51797 -2.6264594,0.65558 -0.2247094,-0.22471 -0.5530133,-0.39887 -0.72958,-0.38706 -0.2258536,0.0151 -0.2200897,0.0622 0.019452,0.15891 0.3910496,0.15777 0.4660816,0.90909 0.090822,0.90909 -0.1373058,0 -0.3219105,-0.15319 -0.4101866,-0.34046 -0.088247,-0.18726 -0.096114,-0.004 -0.01745,0.40858 0.078665,0.41194 0.021883,0.74901 -0.1260062,0.74901 -0.1479614,0 -0.1984642,0.18384 -0.1122762,0.40855 0.086245,0.22471 0.3275172,0.40858 0.5362077,0.40858 0.2086761,0 0.6266292,0.2472 0.9287734,0.54937 0.519731,0.51969 0.525681,0.5951 0.1105604,1.39797 -0.3225542,0.62376 -0.3550642,0.90047 -0.1227167,1.04408 0.1738921,0.10736 0.3599271,0.42825 0.4134048,0.71288 0.053491,0.2846 0.1065556,0.54174 0.11814,0.57142 0.056496,0.1461 1.8459318,-0.58669 2.2212776,-0.90963 z m 23.1063459,0.61221 c 0.241743,-0.29127 0.207317,-0.64898 -0.147918,-1.53681 -0.396972,-0.99213 -0.408013,-1.20067 -0.07753,-1.46197 0.212053,-0.16764 0.674601,-0.71477 1.027892,-1.21581 0.587568,-0.8333 0.605361,-0.94795 0.208548,-1.34477 -0.245035,-0.24499 -0.845834,-0.42209 -1.380653,-0.40695 -1.006667,0.0283 -1.403266,-0.26327 -1.555246,-1.14429 -0.0934,-0.54141 -0.899797,-1.19761 -1.494416,-1.21602 -0.171018,-0.005 -0.389104,0.30175 -0.484646,0.68241 -0.09554,0.38061 -0.292662,0.61852 -0.438077,0.52866 -0.145415,-0.0898 -0.2644,0.0867 -0.2644,0.39224 0,0.38451 -0.230673,0.60649 -0.749017,0.7208 -1.974658,0.43554 -2.088206,0.51907 -2.124435,1.56235 -0.02746,0.79064 0.08353,1.03462 0.534191,1.17512 0.764965,0.2384 0.993079,0.65513 0.679434,1.24116 -0.259193,0.48431 -0.07237,1.83865 0.259393,1.88119 0.09612,0.0135 0.495188,0.0756 0.88681,0.1406 0.427794,0.071 0.848865,-0.0466 1.054752,-0.29476 0.449648,-0.5418 0.765008,-0.52147 2.046428,0.13182 1.265187,0.64504 1.597925,0.67228 2.018824,0.16511 z m 15.405823,-0.51352 c 0.235151,-0.31813 0.409771,-0.29906 1.096801,0.11966 0.449419,0.27398 1.215456,0.4988 1.702334,0.49959 0.821946,0 0.885208,-0.0635 0.885208,-0.90648 0,-0.49932 -0.08525,-0.99318 -0.189468,-1.09736 -0.584551,-0.58459 -0.191757,-1.50631 0.802309,-1.88274 0.310612,-0.11763 0.476666,-0.47046 0.476666,-1.01288 0,-0.91641 -0.715307,-1.36371 -2.180659,-1.36371 -0.940703,0 -1.264458,-0.41228 -0.781099,-0.99472 0.296038,-0.35671 0.269205,-0.48783 -0.164795,-0.80518 -0.969322,-0.70878 -1.641033,-0.47173 -2.206204,0.7785 -0.501524,1.10943 -0.58249,1.16354 -1.946566,1.30072 -0.782801,0.0787 -1.561024,0.28088 -1.729396,0.44924 -0.379864,0.37986 -0.07194,1.45046 0.41711,1.45046 0.198021,0 0.64322,0.22928 0.989331,0.50955 0.609166,0.49328 0.614315,0.53244 0.160862,1.22446 -0.475293,0.72541 -0.389705,2.02607 0.156916,2.38477 0.383769,0.25181 2.188653,-0.21832 2.51065,-0.654 z m 22.478557,0.34768 c 0.160577,-0.30003 0.226942,-1.08708 0.147476,-1.74898 -0.126296,-1.05244 -0.05992,-1.26594 0.529456,-1.70155 0.37064,-0.27398 0.706939,-0.79659 0.747315,-1.16135 0.05964,-0.53933 -0.09197,-0.71202 -0.811821,-0.92462 -0.486863,-0.14375 -0.885206,-0.37447 -0.885206,-0.51271 0,-0.13831 -0.245134,-0.17355 -0.544746,-0.0784 -0.384986,0.12209 -0.544748,0.0489 -0.544748,-0.24972 0,-0.23243 -0.347941,-0.81202 -0.773188,-1.28797 l -0.773203,-0.86535 -0.58867,0.58868 c -0.323785,0.32377 -0.588684,0.82951 -0.588684,1.12384 0,0.68321 -0.726849,1.06361 -1.77043,0.92654 -0.963943,-0.12656 -2.217646,0.76188 -1.8661,1.32251 0.119995,0.19147 0.182975,0.56258 0.139881,0.82476 -0.04448,0.27037 0.09212,0.47666 0.315502,0.47666 0.216643,0 0.461248,0.25743 0.543531,0.57214 0.08225,0.3147 0.269977,0.49777 0.417066,0.40687 0.400132,-0.2473 0.541372,0.43504 0.232619,1.12382 -0.421958,0.94125 0.215385,1.52815 1.428081,1.31506 0.532646,-0.0937 1.244233,-0.17851 1.58129,-0.18859 0.337057,-0.009 0.614715,-0.15868 0.617018,-0.33012 0.0028,-0.22108 0.06451,-0.21664 0.211966,0.0151 0.18818,0.29603 1.264586,0.83855 1.748989,0.8815 0.107123,0.009 0.326073,-0.22819 0.486635,-0.52825 z m 19.078911,-0.0187 c 0.133015,-0.21419 0.16807,-0.85423 0.07781,-1.42231 -0.13388,-0.84211 -0.04805,-1.15661 0.464679,-1.70234 0.345882,-0.36817 0.791368,-0.66945 0.989961,-0.66945 0.413562,0 0.47638,-1.03017 0.09912,-1.62662 -0.1572,-0.24855 -0.699001,-0.40464 -1.425792,-0.41074 -1.363131,-0.0108 -1.85317,-0.25661 -1.85317,-0.92732 0,-0.26465 -0.28441,-0.74838 -0.632022,-1.07497 l -0.63202,-0.59374 -0.661757,0.70553 c -0.369724,0.39417 -0.621923,0.94888 -0.571493,1.25698 0.05592,0.34179 -0.02174,0.48228 -0.204285,0.36942 -0.161993,-0.10005 -0.294535,-0.0503 -0.294535,0.11074 0,0.16101 -0.340576,0.26679 -0.756827,0.23508 -0.416251,-0.0318 -0.906532,0.0348 -1.089492,0.14796 -0.196934,0.12168 -0.334383,0.06 -0.336844,-0.15095 -0.0057,-0.53132 -0.531173,0.34928 -0.536407,0.89977 -0.0028,0.24156 0.368266,0.90784 0.823462,1.48062 0.671498,0.84498 0.793714,1.1989 0.647813,1.87601 -0.09884,0.45899 -0.286397,0.87503 -0.416653,0.92451 -0.411659,0.15642 0.51022,0.86333 1.125879,0.86333 0.324127,0 0.90097,-0.24515 1.281865,-0.54475 0.681594,-0.53614 1.501323,-0.74017 1.368094,-0.34047 -0.03748,0.11222 0.05449,0.24942 0.204285,0.30463 0.149807,0.0552 0.496619,0.2574 0.770686,0.4494 0.607821,0.4257 1.233492,0.36131 1.557634,-0.16036 z m 15.041747,0.0193 c 0.81605,-0.64189 1.22468,-0.71682 0.7428,-0.13616 -0.28328,0.34133 -0.24397,0.40854 0.23902,0.40854 0.36097,0 0.5781,-0.17275 0.5781,-0.45994 0,-0.38709 0.088,-0.36556 0.55536,0.13616 1.08952,1.16949 2.89678,0.32292 2.17796,-1.02023 -0.50191,-0.93781 -0.30252,-1.7443 0.68002,-2.7505 l 0.96195,-0.98515 -0.5732,-0.72871 c -0.5024,-0.63871 -0.70463,-0.70773 -1.63679,-0.55867 -0.98634,0.15774 -1.08516,0.11331 -1.36101,-0.6123 -0.16361,-0.43029 -0.48631,-0.99105 -0.71713,-1.24607 -0.38398,-0.42432 -0.47503,-0.42747 -1.07054,-0.0371 -0.42203,0.27653 -0.65087,0.68678 -0.65087,1.16688 0,0.99935 -0.29522,1.22894 -0.65662,0.51061 -0.33383,-0.66353 -1.0651,-1.04147 -0.83007,-0.42898 0.0998,0.26013 -0.2101,0.52608 -0.953121,0.81796 -1.347899,0.5295 -1.443369,1.22936 -0.299026,2.19225 0.441107,0.37117 0.728167,0.74872 0.637897,0.83897 -0.0902,0.0903 -0.321178,0.0338 -0.513163,-0.12561 -0.271765,-0.22553 -0.331208,-0.12249 -0.268475,0.46596 0.101688,0.95424 0.633268,1.15552 0.930388,0.35232 0.20311,-0.54906 0.24513,-0.56174 0.41292,-0.12452 0.10269,0.26773 0.0811,0.62448 -0.0481,0.79276 -0.49719,0.64787 -0.5532,1.25887 -0.15214,1.65994 0.55522,0.5552 0.98327,0.5249 1.81372,-0.12831 z m -4.159935,-1.49803 c 0,-0.22471 -0.183848,-0.40859 -0.408557,-0.40859 -0.425334,0 -0.540384,0.32214 -0.226984,0.63556 0.313401,0.31341 0.635541,0.19833 0.635541,-0.22697 z m -28.228396,-1.63423 c 0.08625,-0.22471 0.03805,-0.40855 -0.106988,-0.40855 -0.145102,0 -0.263829,0.18384 -0.263829,0.40855 0,0.2247 0.0482,0.40859 0.106989,0.40859 0.05892,0 0.177596,-0.18389 0.263826,-0.40859 z m -9.717888,-0.73199 c -0.08696,-0.21729 -0.151493,-0.15273 -0.164567,0.16457 -0.01149,0.28711 0.05249,0.44798 0.143056,0.35746 0.09053,-0.0906 0.10012,-0.3254 0.02146,-0.52203 z m -26.19777,-1.03841 c 0.09253,-0.14978 0.03848,-0.27235 -0.120144,-0.27235 -0.15866,0 -0.288457,0.12263 -0.288457,0.27235 0,0.14983 0.05407,0.27239 0.120144,0.27239 0.06607,0 0.195875,-0.1225 0.288457,-0.27239 z m -9.396908,-1.2096 c 0,-0.0661 -0.122577,-0.19587 -0.27238,-0.28843 -0.149791,-0.0925 -0.272366,-0.0387 -0.272366,0.12019 0,0.15863 0.122577,0.28843 0.272366,0.28843 0.149807,0 0.27238,-0.0541 0.27238,-0.12007 z m -11.712082,-0.2593 c 0,-0.059 -0.183846,-0.17759 -0.408557,-0.26384 -0.224709,-0.0863 -0.408556,-0.038 -0.408556,0.10695 0,0.1451 0.183847,0.26381 0.408556,0.26381 0.224711,0 0.408557,-0.048 0.408557,-0.10694 z m 47.86405,-0.0575 c -0.09053,-0.0906 -0.325428,-0.10005 -0.522048,-0.0216 -0.217287,0.0869 -0.152753,0.15148 0.164553,0.16458 0.287126,0.0108 0.448003,-0.0525 0.357495,-0.14308 z m 47.534919,-0.0158 c -0.18725,-0.0756 -0.49367,-0.0756 -0.68092,0 -0.18727,0.0756 -0.034,0.1373 0.34046,0.1373 0.37451,0 0.52772,-0.0618 0.34046,-0.1373 z m -58.628482,-0.36438 c 0,-0.14978 -0.12973,-0.27236 -0.288456,-0.27236 -0.158646,0 -0.212696,0.12264 -0.120144,0.27236 0.09253,0.14981 0.222392,0.27239 0.288456,0.27239 0.06607,0 0.120144,-0.12263 0.120144,-0.27239 z m 31.459186,0 c 0.09253,-0.14978 0.03848,-0.27236 -0.120144,-0.27236 -0.158645,0 -0.288442,0.12264 -0.288442,0.27236 0,0.14981 0.05407,0.27239 0.120144,0.27239 0.06607,0 0.19586,-0.12263 0.288442,-0.27239 z m 24.922216,-0.1202 c 0,-0.0661 -0.12258,-0.19584 -0.27237,-0.28843 -0.1498,-0.0925 -0.27238,-0.0385 -0.27238,0.1202 0,0.15862 0.12258,0.28843 0.27238,0.28843 0.14979,0 0.27237,-0.0541 0.27237,-0.1202 z m -66.459231,-0.84925 c 0,-0.23357 0.09197,-0.36784 0.204271,-0.2984 0.112423,0.0695 0.204285,-0.45925 0.204285,-1.17492 0,-0.92905 -0.0974,-1.26381 -0.340475,-1.17052 -0.693309,0.26605 -0.30389,-0.35552 0.582177,-0.92921 0.976372,-0.6322 1.272409,-1.82558 0.524107,-2.11271 -0.215484,-0.0826 -0.326373,-0.2562 -0.246422,-0.38555 0.07995,-0.1294 -0.364919,-0.20642 -0.988601,-0.17123 -1.262097,0.0712 -1.707797,-0.23207 -1.774062,-1.20714 -0.05049,-0.74274 -0.48396,-1.10375 -1.332639,-1.10985 -0.544988,-0.004 -0.776221,0.34599 -1.279661,1.93644 -0.0964,0.3047 -0.612054,0.50156 -1.65515,0.63186 -1.392452,0.17399 -1.51062,0.24287 -1.460275,0.85123 0.03018,0.36404 0.163722,0.6619 0.296896,0.6619 0.133164,0 0.173948,0.17759 0.09068,0.39469 -0.09383,0.24435 -0.02059,0.34446 0.192314,0.26278 0.189081,-0.0725 0.554029,0.10046 0.81099,0.38434 0.366436,0.40487 0.409029,0.66928 0.197506,1.22564 -0.18313,0.48165 -0.177997,0.76607 0.01602,0.88596 0.157129,0.0971 0.222793,0.41711 0.145917,0.7111 -0.127729,0.48872 -0.0422,0.51826 0.997669,0.34448 0.625599,-0.10452 1.227499,-0.32827 1.337573,-0.49721 0.133299,-0.2045 0.202883,-0.17063 0.208447,0.10141 0.0072,0.34199 0.04763,0.3466 0.249052,0.0283 0.254445,-0.40184 0.481487,-0.33866 1.793744,0.49941 1.017606,0.64987 1.225696,0.67314 1.225696,0.13702 z m -23.287976,-0.39247 c 0.929904,-0.61589 1.912741,-0.70576 2.233551,-0.20431 0.11986,0.18727 0.462948,0.37623 0.762561,0.41993 0.299613,0.0437 0.728594,0.10506 0.953303,0.13617 0.324342,0.045 0.408556,-0.28242 0.408556,-1.58856 0,-1.39635 0.113424,-1.78079 0.749032,-2.54037 0.793885,-0.94863 0.886953,-1.30322 0.501738,-1.91145 -0.19077,-0.30123 -0.415064,-0.31595 -1.112206,-0.0729 -1.136591,0.39625 -2.027619,-0.02 -1.811548,-0.84628 0.161319,-0.6169 -0.686844,-1.56342 -1.400949,-1.56342 -0.475521,0 -1.420228,1.01781 -1.420228,1.53013 0,0.44967 -0.663859,0.79726 -1.974714,1.03388 -0.769041,0.13889 -1.021397,0.31595 -1.021397,0.71682 0,0.29279 0.107691,0.53241 0.239326,0.53241 0.131582,0 0.391637,0.36768 0.577785,0.81709 0.186164,0.44943 0.439136,0.81713 0.562167,0.81713 0.236338,0 0.132448,0.89915 -0.158344,1.36953 -0.09454,0.15293 -0.09168,0.64272 0.0057,1.08851 0.210936,0.96033 0.744069,1.03468 1.905161,0.26572 z m 39.940592,0.0269 c 0.607164,0.43236 1.031753,0.53109 1.724575,0.40113 0.91407,-0.17149 0.918933,-0.18046 0.884864,-1.6356 -0.03261,-1.39536 0.34777,-2.33332 0.946409,-2.33332 0.349973,0 1.036701,-0.70879 1.036701,-1.07003 0,-0.1605 -0.122577,-0.29184 -0.27238,-0.29184 -0.149806,0 -0.272381,-0.15778 -0.272381,-0.35058 0,-0.19286 -0.27341,-0.37119 -0.607578,-0.39637 -0.334167,-0.0253 -0.733098,-0.21743 -0.886508,-0.42723 -0.153411,-0.2098 -0.582592,-0.36851 -0.953732,-0.35266 -0.520746,0.0223 -0.738089,-0.15989 -0.952016,-0.79767 -0.24878,-0.74173 -0.398586,-0.83023 -1.460762,-0.86302 -1.044711,-0.0322 -1.167369,0.0253 -1.045655,0.49078 0.07609,0.29079 -0.06507,0.73219 -0.314501,0.98399 -0.421872,0.4258 -0.418711,0.44381 0.04705,0.26741 0.337829,-0.12804 0.46312,-0.079 0.38723,0.1514 -0.182588,0.55443 -1.3613,0.58264 -1.756598,0.0421 -0.301444,-0.41226 -0.355722,-0.42067 -0.355722,-0.0549 0,0.46809 -0.70784,0.88066 -1.361874,0.79369 -0.243659,-0.0326 -0.298625,0.0326 -0.136162,0.16132 0.149807,0.11857 0.30891,0.3995 0.35355,0.62422 0.04462,0.22471 0.461046,0.72658 0.925369,1.11527 0.691448,0.5788 0.811347,0.83756 0.662671,1.42995 -0.09984,0.3978 -0.33697,0.72328 -0.52694,0.72328 -0.564311,0 -0.471773,1.0513 0.129582,1.47252 0.490396,0.34351 0.701833,0.32758 1.777981,-0.13372 1.218103,-0.52211 1.223595,-0.52196 2.026862,0.05 z m 17.840812,-0.26131 c 0.268991,-0.36789 0.415407,-0.37557 1.089622,-0.0572 0.428365,0.20224 1.207848,0.45108 1.73217,0.55304 l 0.953316,0.1853 v -1.73132 c 0,-0.95228 0.12543,-1.81883 0.278659,-1.92571 0.153268,-0.10694 0.496875,-0.53709 0.763593,-0.95599 0.474777,-0.74573 0.471788,-0.77264 -0.142456,-1.28473 -0.569132,-0.47446 -1.42027,-0.67961 -2.329735,-0.56151 -0.187265,0.0242 -0.340476,-0.16776 -0.340476,-0.42682 0,-0.25906 -0.266502,-0.75474 -0.592217,-1.10145 -0.617633,-0.65744 -1.314402,-0.83869 -1.314402,-0.34193 0,0.15862 -0.121144,0.21353 -0.269249,0.12195 -0.154396,-0.0954 -0.200065,0.0143 -0.106988,0.25631 0.08925,0.23246 0.02803,0.4227 -0.136018,0.4227 -0.164067,0 -0.269105,0.27576 -0.233421,0.61281 0.05822,0.55032 -0.0542,0.61288 -1.102435,0.61288 -0.697814,0 -1.260697,0.15094 -1.399505,0.37536 -0.127715,0.20643 -0.357709,0.29777 -0.51112,0.20298 -0.15341,-0.0948 -0.250412,0.022 -0.215569,0.25926 0.0349,0.23738 0.194158,0.51374 0.354048,0.61414 0.514025,0.32271 1.186708,2.29973 1.126966,3.31216 -0.0319,0.54028 0.02046,1.10913 0.116277,1.26417 0.24642,0.39873 1.906905,0.10263 2.279118,-0.40642 z m 18.818873,0.23441 c 0.469057,-0.54784 1.434846,-0.75259 1.434846,-0.30415 0,0.30415 1.056767,0.65134 1.760073,0.57825 0.833346,-0.0867 1.242102,-0.83898 1.143671,-2.10507 -0.07538,-0.97032 0.03133,-1.26565 0.682625,-1.88972 1.15191,-1.10355 0.915901,-1.54386 -0.998814,-1.86321 -1.584509,-0.26428 -1.639374,-0.30159 -1.802668,-1.22568 -0.09268,-0.52419 -0.184561,-0.83388 -0.204284,-0.6882 -0.01974,0.14566 -0.219976,0.004 -0.445015,-0.31931 -0.383669,-0.54774 -0.460074,-0.5588 -1.225696,-0.17684 -0.529029,0.26392 -0.817971,0.61608 -0.820674,1.00021 -0.0057,0.86494 -0.389878,1.3336 -1.006524,1.22924 -0.726461,-0.12304 -1.908421,0.53786 -2.070485,1.15757 -0.09325,0.35658 0.143914,0.66289 0.823878,1.06409 0.86158,0.50833 0.937769,0.64896 0.780311,1.44026 -0.211193,1.06122 -0.21371,2.0632 -0.0057,2.39924 0.274425,0.44404 1.476794,0.26153 1.954776,-0.29668 z m 1.162479,0 c 0,-0.14983 -0.122577,-0.27239 -0.272381,-0.27239 -0.149805,0 -0.272365,0.12263 -0.272365,0.27239 0,0.14978 0.122577,0.27235 0.272365,0.27235 0.149807,0 0.272381,-0.12263 0.272381,-0.27235 z m -27.323707,-0.59584 c -0.08696,-0.21729 -0.151494,-0.15273 -0.164566,0.16454 -0.01149,0.28714 0.05249,0.44802 0.143069,0.3575 0.09053,-0.0906 0.10012,-0.32541 0.02146,-0.52204 z M 52.48354,162.95535 c 0,-0.14978 -0.122577,-0.27236 -0.272366,-0.27236 -0.149806,0 -0.27238,0.12263 -0.27238,0.27236 0,0.14982 0.122578,0.27238 0.27238,0.27238 0.149807,0 0.272366,-0.12249 0.272366,-0.27238 z m -39.580521,-2.23007 c -0.08696,-0.21725 -0.151494,-0.15274 -0.164567,0.16458 -0.01149,0.28711 0.05249,0.44798 0.143056,0.3575 0.09053,-0.0906 0.100268,-0.32544 0.02146,-0.52208 z m 9.891765,0.47572 c 0,-0.0661 -0.122577,-0.19587 -0.272366,-0.28844 -0.149807,-0.0925 -0.27238,-0.0387 -0.27238,0.1202 0,0.15864 0.122578,0.28844 0.27238,0.28844 0.149792,0 0.272366,-0.0541 0.272366,-0.1202 z m 47.665443,-1.77797 c 0,-0.14507 -0.183861,-0.19325 -0.40857,-0.10695 -0.22471,0.0863 -0.408556,0.20496 -0.408556,0.26384 0,0.059 0.183846,0.10695 0.408556,0.10695 0.224709,0 0.40857,-0.11871 0.40857,-0.26384 z m -8.57978,-0.2809 c 0.09254,-0.14981 0.03848,-0.27237 -0.120144,-0.27237 -0.158645,0 -0.288457,0.12263 -0.288457,0.27237 0,0.14979 0.05407,0.27237 0.120144,0.27237 0.06607,0 0.19586,-0.12263 0.288457,-0.27237 z m -22.198468,-0.27237 c 0,-0.14983 -0.05407,-0.2724 -0.120144,-0.2724 -0.06608,0 -0.195875,0.12263 -0.288457,0.2724 -0.09253,0.14982 -0.03848,0.27237 0.120143,0.27237 0.158645,0 0.288456,-0.12263 0.288458,-0.27237 z m 23.151771,-0.69718 c 0,-0.35747 0.637785,-0.70595 1.454998,-0.79505 0.275912,-0.0303 0.607806,-0.2264 0.737503,-0.43624 0.198593,-0.32136 0.362545,-0.30675 1.038404,0.0925 1.002546,0.59224 2.216572,0.62813 2.216572,0.0656 0,-0.22472 0.183862,-0.40854 0.408571,-0.40854 0.314374,0 0.279761,-0.12885 -0.150121,-0.55871 -0.690748,-0.69074 -0.510749,-1.40256 0.607292,-2.40154 0.664646,-0.59386 0.777322,-0.85924 0.624084,-1.46979 -0.188567,-0.7513 -0.476223,-0.87367 -1.812637,-0.77112 -0.505457,0.0388 -0.827797,-0.12398 -1.043481,-0.52699 -0.171646,-0.32072 -0.243103,-0.65211 -0.158773,-0.73643 0.188866,-0.18891 -0.899597,-1.1619 -1.299772,-1.1619 -0.38201,0 -1.533133,1.349 -1.533133,1.79672 0,0.54323 -0.432513,0.6838 -1.202827,0.39095 -0.455956,-0.17335 -0.703793,-0.17404 -0.703793,-0.004 0,0.14612 -0.186492,0.26567 -0.414405,0.26567 -0.227914,0 -0.554015,0.3064 -0.724646,0.68093 -0.170646,0.3745 -0.421915,0.68094 -0.558378,0.68094 -0.136447,0 -0.06422,0.18385 0.160462,0.40855 0.224709,0.2247 0.518515,0.40855 0.652904,0.40855 0.464909,0 1.587597,1.42854 1.224524,1.55811 -0.18725,0.0668 -0.340461,0.24111 -0.340461,0.3873 0,0.14614 0.13845,0.18017 0.307708,0.0754 0.187737,-0.116 0.255962,-0.0426 0.174965,0.1882 -0.07309,0.20813 -0.332923,0.36155 -0.577571,0.341 -0.346883,-0.0292 -0.407126,0.12074 -0.273596,0.68089 0.09412,0.39512 0.275827,0.85222 0.403678,1.01582 0.127864,0.16358 0.172234,0.35764 0.09869,0.43125 -0.07366,0.0737 0.05005,0.13385 0.274739,0.13385 0.224711,0 0.408571,-0.15029 0.408571,-0.33398 z m -50.933922,-0.71755 c 0,-0.14217 -0.183847,-0.0746 -0.408556,0.15008 -0.224709,0.22471 -0.40857,0.49361 -0.40857,0.59754 0,0.10397 0.183861,0.0364 0.40857,-0.15009 0.224709,-0.18648 0.408556,-0.45536 0.408556,-0.59753 z m -0.622123,-0.43874 c 0.182144,-0.25397 0.470457,-0.62323 0.640703,-0.82058 0.242444,-0.28102 0.20018,-0.34007 -0.19499,-0.27237 -0.724145,0.12398 -0.877955,-1.52859 -0.17997,-1.93366 1.348157,-0.78245 1.52491,-1.04349 1.108831,-1.63753 -0.216014,-0.30839 -0.454869,-0.49861 -0.530773,-0.4227 -0.07595,0.076 -0.583692,-0.0483 -1.128397,-0.27576 -0.647367,-0.27049 -1.0493876,-0.64904 -1.1608336,-1.09308 -0.093833,-0.37359 -0.2870119,-0.67929 -0.4294105,-0.67929 -0.142454,0 -0.1831739,-0.12249 -0.090534,-0.27234 0.092535,-0.14982 -0.01659,-0.27239 -0.2427604,-0.27239 -0.2261111,0 -0.5091182,-0.17361 -0.6289172,-0.3858 -0.3268596,-0.57904 -1.281636,0.29574 -1.6972141,1.55498 -0.2938201,0.89026 -0.4638791,1.03103 -1.4327573,1.18596 -1.2007104,0.192 -2.9503865,1.43365 -2.042595,1.44951 0.2710073,0.004 0.4307396,0.10884 0.3549784,0.23149 -0.075804,0.12263 0.2846949,0.37567 0.8010361,0.56237 1.0214406,0.36938 1.1076429,0.57796 0.6114399,1.47973 -0.4272785,0.77652 -0.5029254,1.2759 -0.1932723,1.2759 0.1365907,0 0.2482661,0.18382 0.2482661,0.40853 0,0.2685 0.2686759,0.40856 0.7837728,0.40856 0.431083,0 0.9363539,-0.18384 1.1228466,-0.40856 0.4626494,-0.55745 1.0071523,-0.51287 1.8518686,0.15157 0.8046548,0.63295 1.8810899,0.52901 2.4287399,-0.23454 z m 19.182803,0.13945 c 0.160819,-0.28739 0.162378,-0.46495 0.0043,-0.46495 -0.140882,0 -0.311284,-0.45963 -0.378736,-1.02141 -0.122428,-1.01939 -0.05435,-1.14995 1.433572,-2.75134 0.378779,-0.40771 0.331293,-0.51816 -0.515512,-1.19919 -0.702089,-0.56463 -1.021197,-0.67673 -1.290501,-0.4532 -0.411102,0.34116 -0.9264,0.11304 -0.9264,-0.41025 0,-0.56761 -1.085489,-1.79138 -1.585925,-1.78797 -0.263856,0.004 -0.680622,0.47 -0.98647,1.10825 -0.736245,1.53637 -1.796675,1.98262 -2.659942,1.11934 -0.600913,-0.60093 -0.832531,-0.33098 -0.681594,0.79443 0.100971,0.75246 0.416507,1.37906 0.964315,1.91461 0.776808,0.75949 0.79606,0.83261 0.418468,1.58954 -0.765922,1.5353 0.790538,2.54165 2.298012,1.48576 0.52335,-0.36654 0.729037,-0.37665 1.422474,-0.0696 0.445857,0.19739 0.810662,0.43259 0.810662,0.52269 0,0.3741 1.433944,0.0515 1.6735,-0.37661 z m 15.191183,0.0423 c 0.343722,-0.32022 0.703893,-0.47345 0.800378,-0.34048 0.09654,0.13305 0.298011,0.24817 0.447817,0.25598 0.149792,0.008 0.743439,0.1156 1.319209,0.23934 0.891056,0.19168 1.134274,0.13673 1.634252,-0.36922 0.54592,-0.55244 0.553973,-0.61343 0.114141,-0.86387 -0.260324,-0.1482 -0.605134,-0.51576 -0.766253,-0.81681 -0.246979,-0.46148 -0.140738,-0.70408 0.677604,-1.54655 1.073031,-1.10472 1.213539,-1.63543 0.493857,-1.86543 -0.262154,-0.0838 -0.721784,-0.25748 -1.021397,-0.38598 -0.299613,-0.12845 -0.779726,-0.27059 -1.066923,-0.31578 -0.298197,-0.0469 -0.638257,-0.43053 -0.792799,-0.89441 -0.563239,-1.69049 -1.78014,-1.9135 -2.255776,-0.41342 -0.217315,0.68544 -0.438206,0.92843 -0.786003,0.86482 -0.328247,-0.06 -0.435275,0.0379 -0.332939,0.30447 0.121861,0.31743 -0.08066,0.36692 -1.052506,0.25738 -0.881818,-0.0994 -1.203327,-0.0399 -1.203327,0.22269 0,0.19709 -0.266503,0.64204 -0.592232,0.98876 -0.325729,0.34671 -0.458515,0.63037 -0.295078,0.63037 0.163436,0 0.345251,-0.14425 0.404021,-0.3206 0.157788,-0.47337 0.688889,-0.0466 1.457573,1.17095 0.584622,0.92613 0.642592,1.21189 0.413876,2.04025 -0.146287,0.52981 -0.198936,1.138 -0.116993,1.35151 0.229186,0.59731 1.800035,0.47633 2.519546,-0.19397 z m 38.193419,-0.1356 0.736188,-0.70534 0.765522,0.70986 c 1.170345,1.0852 2.425635,0.51658 2.153656,-0.97559 -0.134882,-0.7402 0.291917,-2.38919 0.622609,-2.40534 0.898438,-0.0438 1.766268,-1.89797 0.888326,-1.89797 -0.266044,0 -0.570649,-0.0869 -0.676903,-0.19319 -0.106272,-0.10627 -0.66725,-0.15893 -1.246665,-0.11708 -0.861723,0.0622 -1.085932,-0.0262 -1.231662,-0.4853 -0.09797,-0.30874 -0.107272,-0.67619 -0.02046,-0.81655 0.08682,-0.14031 -0.08925,-0.33357 -0.390978,-0.42937 -0.301788,-0.0959 -0.54871,-0.27415 -0.54871,-0.39639 0,-0.12223 -0.245305,-0.2864 -0.545118,-0.3648 -0.299826,-0.0784 -0.475907,-0.0306 -0.391306,0.1064 0.08467,0.13689 -0.02403,0.31717 -0.241429,0.40056 -0.217401,0.0834 -0.467241,0.51156 -0.555202,0.95141 -0.140024,0.70009 -0.277515,0.79968 -1.103982,0.79968 -0.519231,0 -1.019796,0.12264 -1.112376,0.27239 -0.09253,0.14979 -0.413477,0.27237 -0.71309,0.27237 -0.299613,0 -0.468999,0.1225 -0.376418,0.27237 0.09253,0.14982 0.02974,0.2724 -0.139594,0.2724 -0.177239,0 -0.125147,0.18266 0.122577,0.4305 0.236795,0.23678 0.360886,0.54323 0.275756,0.68093 -0.0851,0.13774 0.01731,0.25042 0.227655,0.25042 0.210336,0 0.59505,0.23496 0.854915,0.52211 0.378262,0.41796 0.411516,0.63598 0.16677,1.0933 -0.168144,0.31417 -0.23109,0.96787 -0.139882,1.45262 0.141741,0.75345 0.290502,0.89036 1.024674,0.94319 0.609137,0.0439 1.072958,-0.14327 1.595078,-0.64347 z m 18.55586,0.17313 c 0.6043,-0.7058 1.60769,-0.69671 2.05439,0.0185 0.28547,0.45711 0.51612,0.5281 1.22311,0.3765 1.27625,-0.2736 1.31316,-0.33291 0.86886,-1.39625 -0.57856,-1.38468 -0.52745,-1.5846 0.6258,-2.44806 1.60186,-1.1993 1.04745,-2.55465 -0.97485,-2.38321 -1.00667,0.0853 -1.03741,0.0599 -1.49975,-1.24185 -0.4546,-1.27997 -0.50124,-1.32058 -1.26459,-1.10166 -0.43593,0.12506 -0.84736,0.17252 -0.91431,0.10559 -0.067,-0.0669 -0.26483,0.44657 -0.43976,1.14122 -0.28742,1.14147 -0.38066,1.24724 -0.96936,1.09948 -1.87524,-0.47065 -2.724518,1.13973 -1.279905,2.42691 0.697625,0.6216 0.759585,0.81963 0.650115,2.0779 -0.0857,0.9847 -0.0128,1.45947 0.25028,1.62602 0.60335,0.38225 1.17272,0.27956 1.66997,-0.3012 z m 1.42506,0 c 0.0925,-0.14981 -0.0227,-0.27238 -0.2563,-0.27238 -0.23355,0 -0.42463,0.12263 -0.42463,0.27238 0,0.14978 0.11527,0.27235 0.2563,0.27235 0.14102,0 0.33205,-0.12263 0.42463,-0.27235 z M 4.2733643,156.0258 c 0,-0.0661 -0.1225734,-0.19583 -0.2723803,-0.28843 -0.1498063,-0.0925 -0.2723803,-0.0385 -0.2723803,0.12019 0,0.15864 0.1225734,0.28842 0.2723803,0.28842 0.1498064,0 0.2723803,-0.0541 0.2723803,-0.12006 z m 95.6389527,-0.79016 c -0.166841,-0.20101 -0.222707,-0.44616 -0.124146,-0.54473 0.09855,-0.0986 0.03618,-0.17922 -0.138593,-0.17922 -0.174764,0 -0.317763,0.24514 -0.317763,0.54474 0,0.3209 0.181587,0.54473 0.44191,0.54473 0.338805,0 0.371145,-0.0853 0.138592,-0.36552 z M 50.39971,154.92898 c 0.08438,-0.21991 0.03618,-0.47228 -0.106988,-0.56084 -0.143271,-0.0886 -0.260495,0.0914 -0.260495,0.39984 0,0.65767 0.15148,0.72401 0.367536,0.161 z m -10.804048,-2.37496 c -0.08696,-0.21731 -0.151494,-0.15279 -0.164567,0.16454 -0.01149,0.28711 0.05249,0.44802 0.143056,0.35748 0.09053,-0.0906 0.100119,-0.32544 0.02146,-0.52202 z m 20.155673,-1.08955 c -0.08696,-0.21723 -0.151494,-0.15271 -0.164567,0.16459 -0.01149,0.28711 0.05249,0.44799 0.143056,0.3575 0.09053,-0.0906 0.10012,-0.32544 0.02146,-0.52209 z m -46.217268,-0.22129 c 0,-0.14978 -0.129865,-0.27234 -0.288442,-0.27234 -0.158645,0 -0.212695,0.12263 -0.120144,0.27234 0.09253,0.14982 0.222393,0.27239 0.288442,0.27239 0.06607,0 0.120144,-0.12263 0.120144,-0.27239 z m 15.983751,-0.59578 c -0.08696,-0.2173 -0.151479,-0.15278 -0.164552,0.16453 -0.01149,0.28715 0.05249,0.44802 0.143056,0.3575 0.09053,-0.0906 0.100119,-0.32544 0.02146,-0.52203 z m 50.895262,-0.47559 c -0.09869,-0.15976 -0.299713,-0.29051 -0.446587,-0.29051 -0.14686,0 -0.108989,0.17151 0.08425,0.38113 0.391035,0.42429 0.641875,0.36158 0.362416,-0.0906 z m 20.58777,0.0499 c 0.3388,-0.43196 0.32916,-0.4416 -0.10284,-0.10289 -0.45371,0.35584 -0.59799,0.57949 -0.37381,0.57949 0.0565,0 0.27105,-0.21449 0.47665,-0.47666 z M 55.128049,148.7631 c 0.43636,-0.23242 0.75039,-0.27417 0.80916,-0.10762 0.221606,0.62846 0.539741,0.9198 1.179429,1.08006 1.003348,0.25139 1.72825,-0.39814 1.694267,-1.51817 -0.04533,-1.49249 0.154884,-2.03706 0.868344,-2.36212 0.539069,-0.2456 0.64641,-0.4566 0.543389,-1.06811 -0.216558,-1.28543 -0.318078,-1.40153 -1.528185,-1.74775 -1.431371,-0.40949 -1.852927,-0.70963 -1.852927,-1.31904 0,-0.25726 -0.301387,-0.60503 -0.669752,-0.77286 -0.597066,-0.27205 -0.742052,-0.21275 -1.336,0.54615 -0.366434,0.46823 -0.608251,1.00249 -0.537367,1.1872 0.07094,0.18474 -0.0015,0.41678 -0.162049,0.5157 -0.160019,0.0988 -0.290945,0.0456 -0.290945,-0.11831 0,-0.2105 -0.155099,-0.21502 -0.528212,-0.0155 -0.351274,0.18797 -0.584766,0.19118 -0.697014,0.009 -0.09282,-0.15019 -0.314773,-0.27121 -0.493184,-0.26894 -0.212581,0.004 -0.194631,0.0864 0.05207,0.24261 0.295723,0.18728 0.251914,0.27795 -0.204285,0.42274 -0.63175,0.20053 -0.755554,0.94629 -0.298783,1.79976 0.196419,0.36699 0.194288,0.52683 -0.0072,0.52683 -0.170159,0 -0.10427,0.35723 0.160432,0.86902 0.425878,0.82356 0.468957,0.84218 0.824107,0.35648 0.338616,-0.46309 0.374744,-0.46713 0.374744,-0.0423 0,0.25861 -0.186635,0.75502 -0.414735,1.10317 -0.594691,0.90759 -0.248151,1.606 0.725934,1.46304 0.434987,-0.0638 0.792239,0.0151 0.809889,0.17906 0.01745,0.16133 0.08425,0.0965 0.148576,-0.14394 0.06436,-0.2405 0.437877,-0.60821 0.830099,-0.81714 z m 42.563504,-0.29234 c 0.0028,-0.10167 -0.177782,-0.36865 -0.402491,-0.59335 -0.799606,-0.79962 -0.462263,-1.71326 1.014489,-2.74763 0.508704,-0.3563 0.539325,-0.49313 0.251655,-1.1245 -0.287083,-0.63007 -0.439836,-0.69778 -1.236925,-0.54823 -1.293449,0.24265 -1.799649,-0.0295 -1.799649,-0.96756 0,-0.50999 -0.17146,-0.85978 -0.476665,-0.97236 -0.262154,-0.0967 -0.565085,-0.30739 -0.67317,-0.46812 -0.242602,-0.36075 -1.023158,0.071 -1.351433,0.74736 -0.122429,0.25215 -0.327545,0.67296 -0.455956,0.93509 -0.128432,0.26217 -0.404178,0.49915 -0.612841,0.52662 -2.192272,0.28871 -2.422174,0.38679 -2.422174,1.03333 0,0.41141 0.3,0.86368 0.817127,1.23189 0.864541,0.61561 1.148048,1.97916 0.476652,2.29248 -0.272367,0.1271 -0.272367,0.19067 0,0.31778 0.187265,0.0873 0.340475,0.3799 0.340475,0.65003 0,0.71441 1.464981,0.8816 2.022242,0.23079 0.545018,-0.63655 1.113665,-0.62754 1.769185,0.028 0.761418,0.7614 1.704551,0.83269 2.262828,0.17098 0.258836,-0.30677 0.473333,-0.6409 0.476651,-0.74259 z m -80.60201,0.39441 c 1.226971,-0.14175 2.53006,0.10005 2.325245,0.43144 -0.205659,0.3328 1.021482,0.21688 1.391836,-0.13142 0.57208,-0.53804 0.716036,-1.64255 0.237998,-1.82597 -0.697171,-0.26754 -0.491927,-1.26603 0.438977,-2.1356 0.848736,-0.79284 0.857876,-0.82668 0.415465,-1.53926 -0.248795,-0.40071 -0.608666,-0.68277 -0.799706,-0.62685 -0.890886,0.26096 -1.860021,0.2784 -1.706954,0.0306 0.0914,-0.14773 0.04205,-0.26865 -0.109705,-0.26865 -0.151609,0 -0.479226,-0.42898 -0.728036,-0.95333 -0.573238,-1.20796 -1.216187,-1.21277 -1.861852,-0.0143 -0.349773,0.64951 -0.766982,0.99679 -1.351718,1.12523 -1.091595,0.23977 -2.079467,0.89123 -2.079467,1.37133 0,0.20749 -0.153211,0.38584 -0.340476,0.3964 -0.216299,0.0108 -0.191455,0.0867 0.06808,0.20428 1.350831,0.6121 1.862065,1.18323 1.705194,1.90491 -0.387788,1.78389 0.129865,3.12655 0.94465,2.45031 0.194116,-0.1611 0.84679,-0.34994 1.450378,-0.41968 z m 19.29285,-0.11709 c 0.463663,-0.28957 0.712229,-0.25225 1.584294,0.23788 1.491311,0.83817 1.506687,0.83775 1.86946,-0.0497 0.265902,-0.65057 0.260208,-0.86397 -0.02918,-1.0895 -0.816096,-0.63628 -0.573695,-1.34941 0.646539,-1.90214 1.040965,-0.47153 1.167142,-0.62355 1.069555,-1.28837 -0.06079,-0.41455 0.02089,-0.80028 0.181702,-0.85716 0.160762,-0.0569 -0.06579,-0.10587 -0.50357,-0.10884 -0.437733,-0.004 -0.928,-0.18239 -1.089492,-0.39876 -0.161491,-0.21637 -0.651831,-0.38491 -1.08965,-0.37451 -0.66958,0.0158 -0.831888,-0.11709 -1.021669,-0.8373 -0.124146,-0.47091 -0.426636,-0.9333 -0.672298,-1.02758 -0.618005,-0.23716 -1.459418,0.0707 -1.459418,0.53396 0,0.51871 -1.342378,1.36725 -1.989561,1.25759 -0.295221,-0.05 -0.448346,0.0299 -0.353019,0.18407 0.09253,0.14982 -0.190196,0.3511 -0.628402,0.44736 -1.107014,0.24314 -1.31127,0.95397 -0.479669,1.66932 0.462506,0.39784 0.595463,0.69286 0.430009,0.95413 -0.374015,0.59055 -0.290029,1.05912 0.189855,1.05912 0.288199,0 0.380923,-0.14795 0.271479,-0.43314 -0.24306,-0.63341 0.08253,-1.01652 0.540742,-0.63624 0.545561,0.45278 0.476236,1.06193 -0.186207,1.6365 -0.459016,0.3981 -0.669537,0.43296 -1.077106,0.17842 -0.278617,-0.174 -0.588041,-0.23493 -0.687589,-0.1353 -0.281189,0.28121 0.520276,0.94633 1.047115,0.86902 0.259036,-0.038 0.470988,0.0465 0.470988,0.18792 0,0.14131 0.27577,0.36003 0.612841,0.48586 0.623025,0.23265 1.361816,0.056 2.352177,-0.56253 z m 41.045645,0.58852 c 0.212452,0 0.386287,-0.25237 0.386287,-0.56082 0,-0.30845 0.122145,-0.48529 0.271551,-0.393 0.180485,0.11155 0.180485,-0.0717 0,-0.54636 -0.434988,-1.14414 -0.319837,-1.7881 0.424417,-2.37353 0.917118,-0.72138 0.813938,-1.80825 -0.226154,-2.38229 -0.653461,-0.36065 -0.789021,-0.36416 -1.000644,-0.0262 -0.202869,0.32409 -0.318291,0.33002 -0.6741,0.0348 -0.236123,-0.196 -0.4334,-0.49453 -0.438377,-0.66343 -0.01149,-0.40624 -0.961012,-1.53281 -1.291232,-1.53281 -0.471489,0 -1.720155,1.45036 -1.574797,1.82915 0.112424,0.29279 -0.145616,0.34468 -1.218274,0.24504 -0.752936,-0.0699 -1.294365,-0.0189 -1.212053,0.11424 0.08181,0.13224 -0.0028,0.48399 -0.188839,0.7813 -0.283335,0.4537 -0.251984,0.63508 0.195047,1.1284 0.37453,0.4133 0.573093,1.12456 0.66885,2.39592 0.157831,2.0956 0.471974,2.31067 2.222109,1.52146 1.041935,-0.46982 1.08287,-0.46766 1.80527,0.0951 0.40654,0.31675 0.902399,0.52121 1.101907,0.45438 0.199508,-0.0668 0.53658,-0.12142 0.749032,-0.12142 z M 9.1760967,148.94408 c 0,-0.0661 -0.1225775,-0.19587 -0.2723813,-0.28848 -0.1498051,-0.0925 -0.272365,-0.0385 -0.272365,0.1202 0,0.15868 0.1225774,0.28848 0.272365,0.28848 0.1498065,0 0.2723813,-0.0541 0.2723813,-0.1202 z m 95.8756133,0 c 0,-0.0661 -0.12257,-0.19587 -0.27238,-0.28848 -0.1498,-0.0925 -0.27236,-0.0385 -0.27236,0.1202 0,0.15868 0.12258,0.28848 0.27236,0.28848 0.14981,0 0.27238,-0.0541 0.27238,-0.1202 z M 8.1213303,148.06639 c 0.3389741,-0.4109 0.3166909,-0.42271 -0.2390125,-0.12655 -0.6338089,0.33774 -0.789866,0.57979 -0.3738287,0.57979 0.1314469,0 0.4072543,-0.20395 0.6128412,-0.45317 z m 37.8252387,0.33305 c 0,-0.0661 -0.122578,-0.19587 -0.27238,-0.28847 -0.149792,-0.0925 -0.272366,-0.0384 -0.272366,0.1202 0,0.15867 0.122577,0.28847 0.272366,0.28847 0.14982,0 0.27238,-0.0541 0.27238,-0.1202 z m 51.913412,-2.01326 c -0.398057,-0.39806 -0.434744,-0.3944 -0.434744,0.0437 0,0.26315 0.153211,0.64506 0.340476,0.84868 0.285753,0.31077 0.355607,0.30377 0.43473,-0.0437 0.05177,-0.2277 -0.101405,-0.60961 -0.340462,-0.8487 z m -76.360406,0.0906 c 0.07166,-0.37454 0.02461,-0.68094 -0.104406,-0.68094 -0.129013,0 -0.234592,0.3064 -0.234592,0.68094 0,0.37451 0.04705,0.68093 0.104405,0.68093 0.0575,0 0.163008,-0.30642 0.234593,-0.68093 z m 69.116325,0.27234 c 0,-0.26508 -0.263026,-0.40716 -0.749031,-0.40454 l -0.749032,0.004 0.680937,0.37787 c 0.374516,0.20779 0.711573,0.38984 0.749031,0.40454 0.03748,0.0147 0.06808,-0.15718 0.06808,-0.38189 z m 8.171211,-0.54474 c 0,-0.22472 -0.122578,-0.40854 -0.272367,-0.40854 -0.149806,0 -0.272379,0.18382 -0.272379,0.40854 0,0.22471 0.122577,0.40857 0.272379,0.40857 0.149807,0 0.272367,-0.18386 0.272367,-0.40857 z M 52.1374,142.36278 c -0.09053,-0.0906 -0.325429,-0.10032 -0.522047,-0.0216 -0.217272,0.0869 -0.152738,0.1515 0.164552,0.16454 0.287126,0.0108 0.448003,-0.0525 0.357495,-0.14304 z m 25.875533,0 c -0.09053,-0.0906 -0.32543,-0.10032 -0.522048,-0.0216 -0.217288,0.0869 -0.152753,0.1515 0.164552,0.16454 0.287126,0.0108 0.448002,-0.0525 0.357496,-0.14304 z M 63.673989,141.1654 c 0.297439,0 0.842915,-0.19791 1.212153,-0.43988 0.412304,-0.27017 0.671354,-0.32268 0.671354,-0.13616 0,0.167 0.09197,0.2839 0.204271,0.25971 0.112424,-0.0242 0.540283,0.0949 0.950957,0.2647 0.84024,0.34745 1.568503,0.17564 1.568503,-0.36998 0,-0.54504 0.572023,-0.79075 0.843401,-0.3623 0.137592,0.21725 0.239513,0.24593 0.24193,0.0681 0.0028,-0.16897 -0.229557,-0.47543 -0.515225,-0.68094 -0.285668,-0.20553 -0.60004,-0.64847 -0.698601,-0.98433 -0.140738,-0.47942 -0.03304,-0.67723 0.500995,-0.92054 1.227013,-0.55905 1.651173,-2.69061 0.535421,-2.69061 -0.349543,0 -0.63554,-0.13088 -0.63554,-0.29075 0,-0.16272 -0.230216,-0.21762 -0.522921,-0.12479 -0.377447,0.11966 -0.826094,-0.1403 -1.612871,-0.93497 -1.134517,-1.14591 -1.677446,-1.37592 -1.677446,-0.71071 0,0.21464 -0.254374,0.47093 -0.565272,0.56963 -0.310898,0.0987 -0.495817,0.24886 -0.410931,0.33373 0.356911,0.35694 -0.47246,0.85445 -1.186321,0.71167 -0.596751,-0.11925 -0.874609,0.004 -1.338117,0.59304 -0.739033,0.93954 -0.741007,1.53132 -0.0072,2.04005 1.06103,0.73519 1.328505,1.11469 1.328505,1.88475 0,0.81376 -0.573065,1.50487 -0.969393,1.16914 -0.131015,-0.11114 -0.0585,0.0416 0.161249,0.33924 0.831314,1.12598 0.931978,1.19463 1.162136,0.79259 0.119859,-0.20923 0.461175,-0.38047 0.758614,-0.38047 z m -37.009513,-0.51678 c 0.494529,-0.30883 0.629489,-0.30395 0.876854,0.0318 0.160806,0.2182 0.449705,0.34372 0.642005,0.27897 0.192286,-0.0648 0.523464,0.0265 0.735945,0.20288 0.560007,0.46474 1.421443,0.0922 1.568747,-0.67829 0.06979,-0.36511 0.02203,-0.59906 -0.106123,-0.51984 -0.128148,0.0792 -0.233034,-0.1083 -0.233034,-0.4168 0,-0.30847 0.153224,-0.57052 0.340475,-0.58231 0.267403,-0.017 0.268276,-0.0508 0.0043,-0.15755 -0.385129,-0.15573 0.270665,-1.65448 0.937856,-2.14333 0.829512,-0.60782 -0.640632,-1.9924 -1.688561,-1.59029 -0.226011,0.0867 -0.621981,0.0767 -0.879944,-0.0223 -0.375832,-0.14424 -0.395698,-0.22533 -0.09997,-0.40806 0.30821,-0.19049 0.30389,-0.32109 -0.02631,-0.79247 -0.458916,-0.65521 -1.898924,-1.838 -1.821791,-1.4964 0.09754,0.43224 -0.363631,1.18436 -0.726304,1.18436 -0.198721,0 -0.400103,0.33619 -0.447502,0.74705 -0.07681,0.66509 -0.22664,0.767 -1.366279,0.92877 -2.18811,0.31065 -2.304176,0.57781 -0.872878,2.0091 0.898909,0.8989 0.953546,1.04161 0.665232,1.73765 -0.561166,1.3548 0.359698,2.95311 1.349101,2.34161 0.15115,-0.0934 0.289042,-0.009 0.30642,0.18668 0.02017,0.22777 0.07238,0.20616 0.144543,-0.0598 0.06207,-0.22902 0.375961,-0.58061 0.697428,-0.78137 z m 75.953554,0.15497 c 0.32517,-0.40159 0.61886,-0.49131 1.16205,-0.35497 0.39979,0.10032 0.72689,0.36393 0.72689,0.58579 0,0.22185 0.092,0.41734 0.20427,0.43446 1.52804,0.23227 1.70448,0.19144 1.86062,-0.43066 0.0883,-0.35156 0.0275,-0.88766 -0.13516,-1.1914 -0.48415,-0.90461 -0.34682,-1.39335 0.65776,-2.34078 0.52432,-0.49453 0.95332,-1.10217 0.95332,-1.35034 0,-0.4468 -0.91956,-0.95472 -1.65933,-0.9165 -0.9156,0.0473 -1.31068,-0.0895 -1.18729,-0.41105 0.19845,-0.51715 -1.2767,-2.06745 -2.05611,-2.16087 -0.54223,-0.0649 -0.69995,0.053 -0.77428,0.57932 -0.16068,1.13773 -0.87286,1.96338 -1.6509,1.91389 -1.483518,-0.0944 -1.660556,-0.0135 -1.656723,0.76173 0.0057,1.02565 0.287112,1.99547 0.535593,1.8419 0.112707,-0.0696 0.40951,0.0992 0.65947,0.37547 0.36685,0.40535 0.40674,0.71455 0.20694,1.60381 -0.19231,0.85593 -0.15824,1.19092 0.15274,1.50189 0.49083,0.49082 1.40919,0.28803 2.00007,-0.44169 z m 1.52258,0.23738 c -0.0887,-0.23117 -0.34899,-0.42031 -0.5784,-0.42031 -0.57726,0 -0.52652,0.75284 0.0595,0.8832 0.61753,0.1373 0.71561,0.0499 0.51884,-0.46289 z m -93.206899,0.0807 c 0.788235,-0.35912 0.836191,-0.62663 0.285181,-1.59052 -0.54087,-0.94617 -0.502826,-1.23147 0.207374,-1.55505 0.338759,-0.15437 0.798204,-0.63369 1.020969,-1.06513 0.222764,-0.43148 0.521405,-0.86798 0.663645,-0.97004 0.142169,-0.10208 -0.04148,-0.2435 -0.408143,-0.31429 -2.605019,-0.50296 -2.8471197,-0.59957 -2.9283161,-1.16866 -0.117994,-0.82745 -1.2596948,-1.82237 -1.8689329,-1.6287 -0.2749109,0.0873 -0.8086447,0.44546 -1.1860926,0.79564 -0.377448,0.35022 -0.8677154,0.58902 -1.0894929,0.53067 -0.2870405,-0.0754 -0.2640561,0.007 0.079809,0.28612 0.4559124,0.37022 0.4482748,0.40409 -0.1361615,0.60341 -0.340547,0.11614 -0.9255983,0.28495 -1.3001142,0.37516 -1.0690971,0.25756 -1.0741746,1.47839 -0.010005,2.37394 l 0.8438583,0.71004 -0.5332327,0.90374 -0.5332183,0.90377 0.6514015,0.42683 c 0.9091644,0.59571 2.1021515,0.5411 2.5771721,-0.11803 0.5082178,-0.7051 0.6971271,-0.68689 1.4127909,0.13615 0.6532177,0.75128 1.206532,0.84093 2.2514434,0.36484 z m 34.195732,-0.1541 c 0.482543,-0.19723 0.739247,-0.18912 0.881044,0.028 0.126012,0.19271 0.201669,0.12939 0.204287,-0.17047 0.0057,-0.60528 0.305362,-0.60446 0.974212,0.004 0.654948,0.59451 2.291404,0.78999 2.588528,0.30922 0.129013,-0.20883 -0.0028,-0.65771 -0.327732,-1.11372 -0.533003,-0.74855 -0.489537,-2.04338 0.05721,-1.70544 0.139023,0.086 0.252771,-0.0306 0.252771,-0.25884 0,-0.22827 0.245135,-0.54622 0.544748,-0.7066 0.317318,-0.1698 0.544746,-0.57028 0.544746,-0.95923 0,-0.51224 -0.237797,-0.7695 -1.021398,-1.10489 -0.56178,-0.24049 -1.16225,-0.46202 -1.334398,-0.49225 -0.561581,-0.0988 -1.185063,-0.76798 -1.185063,-1.27196 0,-0.27115 -0.245148,-0.57083 -0.544746,-0.66593 -0.299613,-0.0951 -0.544747,-0.29597 -0.544747,-0.44638 0,-0.15038 -0.192614,-0.0809 -0.428021,0.15455 -0.235408,0.23542 -0.523179,0.42803 -0.639488,0.42803 -0.116277,0 -0.22225,0.37907 -0.235423,0.84238 -0.01284,0.47254 -0.2409,1.00582 -0.5181,1.21463 -0.519573,0.39138 -1.449262,0.25854 -1.777181,-0.25389 -0.12858,-0.20088 -0.331406,-0.12006 -0.604173,0.24098 -0.458101,0.60623 -0.569605,1.76911 -0.169644,1.76911 0.358882,0 1.517715,1.13047 1.717966,1.6759 0.09097,0.24756 -0.0057,0.67657 -0.215912,0.95328 -0.469916,0.62024 -0.500095,1.24592 -0.08038,1.66564 0.340288,0.34031 0.776091,0.30876 1.860835,-0.13453 z m 38.599429,-0.24131 c 0.601012,-0.37658 1.690406,-0.53804 1.352876,-0.20052 -0.286382,0.28637 1.148734,0.90481 1.661243,0.71586 0.720483,-0.26566 0.874122,-0.66527 0.693223,-1.80316 -0.13931,-0.87605 -0.06036,-1.14421 0.485289,-1.65024 0.358368,-0.3323 0.721628,-0.597 0.807229,-0.58819 0.08568,0.008 0.34561,-0.174 0.577787,-0.40615 0.381266,-0.38131 0.378462,-0.47357 -0.02889,-0.95334 -0.526453,-0.61994 -2.083128,-1.75873 -2.395814,-1.75267 -0.118427,0.004 -0.04592,0.11141 0.161149,0.2426 0.291732,0.18476 0.233147,0.28391 -0.260324,0.44053 -0.421729,0.13385 -0.675344,0.0864 -0.750977,-0.14045 -0.06279,-0.18841 -0.343994,-0.57237 -0.624884,-0.85323 -0.280891,-0.28091 -0.510705,-0.63329 -0.510705,-0.78309 0,-0.44482 -0.663617,-0.31027 -1.124477,0.22797 -0.235638,0.27523 -0.510349,0.82679 -0.610469,1.22568 -0.195588,0.77933 -0.466009,0.87852 -1.250468,0.45869 -0.361944,-0.19371 -0.589686,-0.15648 -0.83256,0.13616 -0.183889,0.22157 -0.489266,0.40286 -0.678634,0.40286 -0.189352,0 -0.3973,0.36122 -0.462105,0.80273 -0.06479,0.44152 -0.02861,0.74762 0.08038,0.68022 0.379708,-0.23466 1.56759,1.47949 1.419013,2.04766 -0.07895,0.30188 -0.25217,0.48173 -0.384942,0.39969 -0.132732,-0.0821 -0.241402,0.0345 -0.241402,0.25933 0,0.22472 0.133299,0.49094 0.296095,0.59157 0.162865,0.10073 0.234693,0.41789 0.159619,0.70496 -0.121713,0.46547 -0.02846,0.50305 0.861479,0.34724 0.548894,-0.0961 1.269448,-0.34478 1.601243,-0.55268 z m -75.3699029,0.16676 c 0,-0.14981 -0.1152763,-0.27238 -0.2563039,-0.27238 -0.1408816,0 -0.3320502,0.12263 -0.4246323,0.27238 -0.092535,0.14982 0.022742,0.27236 0.256304,0.27236 0.2335488,0 0.4246322,-0.12263 0.4246322,-0.27236 z m 6.9954139,-0.32344 c -0.08696,-0.21727 -0.151493,-0.15271 -0.164565,0.16455 -0.01149,0.28715 0.05249,0.44802 0.143054,0.3575 0.09053,-0.0906 0.10012,-0.32546 0.02146,-0.52205 z m 84.52222,-1.73546 c 0,-0.21585 -0.122577,-0.39246 -0.272366,-0.39246 -0.149807,0 -0.27238,0.25238 -0.27238,0.56084 0,0.30845 0.122578,0.48506 0.27238,0.39247 0.149807,-0.0926 0.272366,-0.34494 0.272366,-0.56085 z m -56.653766,-0.12019 c 0,-0.14977 -0.115276,-0.27235 -0.256303,-0.27235 -0.141025,0 -0.332052,0.12263 -0.424633,0.27235 -0.09254,0.14982 0.02274,0.27239 0.256289,0.27239 0.233549,0 0.424647,-0.12263 0.424647,-0.27239 z M 23.611911,138.4416 c 0,-0.14981 -0.129865,-0.27238 -0.288458,-0.27238 -0.158645,0 -0.212694,0.12263 -0.120143,0.27238 0.09253,0.1498 0.222393,0.27235 0.288457,0.27235 0.06608,0 0.120144,-0.12264 0.120144,-0.27235 z m 46.147499,-0.14203 c 0.288671,-0.21839 0.425104,-0.49023 0.303175,-0.60414 -0.121861,-0.11384 -0.2764,-0.0539 -0.343279,0.13331 -0.06694,0.18729 -0.295237,0.34046 -0.50746,0.34046 -0.212222,0 -0.385858,0.12263 -0.385858,0.2724 0,0.37525 0.312528,0.32767 0.933422,-0.14203 z M 59.712661,136.0084 c -0.09869,-0.15976 -0.299713,-0.29052 -0.446574,-0.29052 -0.146873,0 -0.108989,0.17151 0.08425,0.38111 0.391036,0.4243 0.641877,0.36159 0.362403,-0.0906 z m -47.992032,-1.77471 c 0.101269,-0.2638 0.02059,-0.34444 -0.243231,-0.24319 -0.217086,0.0833 -0.394696,0.26088 -0.394696,0.39465 0,0.39159 0.472603,0.27939 0.637927,-0.15146 z m 32.864067,0.12223 c 0,-0.14978 -0.129865,-0.27236 -0.288442,-0.27236 -0.158646,0 -0.212696,0.12263 -0.120144,0.27236 0.09253,0.14982 0.222378,0.27238 0.288443,0.27238 0.06607,0 0.120143,-0.12249 0.120143,-0.27238 z M 15.85053,133.3132 c -0.06136,-0.0614 0.05779,-0.28078 0.264614,-0.48768 0.41535,-0.41535 2.594035,-0.52274 2.594035,-0.1279 0,0.13658 0.214497,0.21358 0.476651,0.17116 0.262168,-0.0423 0.639216,0.0525 0.837881,0.21086 0.259907,0.20722 0.423258,0.18763 0.58239,-0.0698 0.121712,-0.19682 0.349558,-0.2785 0.506487,-0.18152 0.327917,0.20266 0.02961,-1.02945 -0.479484,-1.98081 -0.359268,-0.6713 -0.214625,-0.99099 0.855945,-1.89183 0.418539,-0.35217 0.76003,-0.84393 0.758872,-1.09277 -0.0028,-0.57373 -1.100992,-1.09601 -1.789123,-0.85074 -0.798462,0.28457 -1.127524,0.0492 -1.761405,-1.26028 -0.715077,-1.47714 -1.306378,-1.53288 -2.031024,-0.1914 -0.469685,0.86951 -0.780026,1.07737 -2.25233,1.50859 l -1.707582,0.50016 0.752664,1.01011 c 0.413963,0.55556 0.894991,1.10162 1.06894,1.21347 0.19609,0.12615 0.261539,0.61155 0.172246,1.27736 -0.204098,1.5216 0.07695,2.4438 0.729624,2.39464 0.292676,-0.0219 0.481943,-0.0902 0.420599,-0.15161 z m 21.92483,-0.0468 c 0,-0.14983 -0.05407,-0.27235 -0.120144,-0.27235 -0.06608,0 -0.195875,0.1225 -0.288456,0.27235 -0.09253,0.14982 -0.03848,0.27239 0.120144,0.27239 0.158645,0 0.288457,-0.12263 0.288456,-0.27239 z m 16.571592,-0.28448 c 1.101878,-0.67178 2.940702,-0.59137 3.484548,0.15238 0.282048,0.38573 0.435331,0.41854 0.746986,0.15988 0.289529,-0.24029 0.358783,-0.74281 0.264715,-1.92096 -0.07823,-0.98026 -0.01444,-1.66537 0.165595,-1.77659 0.161135,-0.0995 0.222322,-0.29544 0.136019,-0.43515 -0.08638,-0.13973 0.156772,-0.37338 0.540313,-0.5192 0.501023,-0.19049 0.697313,-0.46417 0.697313,-0.97225 0,-1.25195 -0.797718,-1.62144 -2.383271,-1.1039 -0.391207,0.12777 -0.612841,0.0891 -0.612841,-0.10681 0,-0.16874 -0.122578,-0.23103 -0.272367,-0.13845 -0.149806,0.0925 -0.291045,0.008 -0.313858,-0.1882 -0.02274,-0.1961 -0.06994,-0.47912 -0.10469,-0.6289 -0.03476,-0.14983 -0.07738,-0.42562 -0.09468,-0.61285 -0.01731,-0.18726 -0.222508,-0.34048 -0.456056,-0.34048 -0.233563,0 -0.348886,-0.12263 -0.256304,-0.27235 0.290302,-0.46975 -0.08024,-0.29824 -0.803096,0.37168 -0.451407,0.41835 -0.694954,0.93427 -0.694954,1.47212 0,0.80702 -0.02731,0.82438 -1.075032,0.68388 -1.925814,-0.25831 -2.621082,1.5688 -1.041407,2.73674 0.857646,0.63404 1.00864,1.867 0.337344,2.75457 -0.958281,1.26693 0.09769,1.68353 1.735873,0.68482 z m 19.323013,-0.4847 c 0.759815,-0.57043 0.995738,-0.6255 1.566159,-0.36559 0.369365,0.16828 0.671581,0.43117 0.671581,0.58421 0,0.153 0.399503,0.27822 0.887782,0.27822 1.261684,0 1.728523,-0.7976 1.136721,-1.94205 -0.523135,-1.01159 -0.166669,-1.60872 0.539054,-0.90298 0.25217,0.25217 0.544588,0.36586 0.649799,0.2526 0.105271,-0.1133 0.03805,-0.26062 -0.149149,-0.32749 -0.474433,-0.16947 -0.424789,-0.89348 0.101121,-1.47458 0.674815,-0.74566 0.277415,-1.26588 -1.128053,-1.47661 -0.9626,-0.14437 -1.333039,-0.34323 -1.557648,-0.83621 -0.162078,-0.35572 -0.389334,-0.64681 -0.505,-0.64681 -0.115709,0 -0.288099,-0.2451 -0.383197,-0.54474 -0.209048,-0.65866 -0.829612,-0.71523 -1.066766,-0.0971 -0.0944,0.24614 -0.249496,0.36977 -0.344551,0.27474 -0.26666,-0.26667 -0.903858,0.37623 -0.903858,0.91193 0,0.66083 -0.755111,1.26046 -1.123462,0.89214 -0.196076,-0.1961 -0.526998,-0.16166 -1.075305,0.11182 -0.769584,0.38394 -0.780469,0.4176 -0.383326,1.18556 0.224809,0.43473 0.652603,0.92094 0.95067,1.08045 0.640632,0.34286 0.719382,1.30935 0.125296,1.53735 -0.433114,0.16621 -0.371013,0.7565 0.202467,1.9246 0.315604,0.64286 0.401577,0.62273 1.789711,-0.41942 z m 0.875867,0.76919 c 0,-0.14982 -0.05407,-0.27235 -0.120143,-0.27235 -0.06608,0 -0.195862,0.1225 -0.288443,0.27235 -0.09253,0.14982 -0.03848,0.2724 0.120144,0.2724 0.158645,0 0.288442,-0.12263 0.288442,-0.2724 z m 17.919406,-0.27235 c 0.20819,0 0.60097,-0.27475 0.87285,-0.61048 l 0.494329,-0.61046 0.599153,0.54235 c 1.0102,0.9145 3.5029,0.67204 2.730669,-0.26561 -0.258106,-0.31338 -0.183574,-1.92744 0.123145,-2.66477 0.195189,-0.4694 0.422487,-0.56495 1.229431,-0.51685 0.274182,0.0164 0.29658,-0.0253 0.06808,-0.12656 -0.187251,-0.083 -0.340462,-0.27053 -0.340462,-0.41671 0,-0.14616 0.134733,-0.18244 0.299557,-0.0807 0.21052,0.1302 0.207674,0.0143 -0.01001,-0.39249 -0.17003,-0.31769 -0.495903,-0.57758 -0.724188,-0.57758 -0.22827,0 -0.358296,-0.0919 -0.288928,-0.20429 0.06936,-0.11249 -0.168987,-0.22198 -0.529686,-0.24364 -1.068796,-0.0641 -1.540928,-0.33859 -1.366092,-0.79422 0.08868,-0.23122 0.05864,-0.35695 -0.06694,-0.27936 -0.12543,0.0775 -0.389963,-0.16121 -0.587669,-0.53063 -0.602802,-1.12633 -1.937543,-0.74576 -2.026619,0.57789 -0.0339,0.50351 -0.935167,1.23999 -1.439165,1.17601 -0.911581,-0.11574 -1.976716,0.34243 -1.976716,0.8502 0,0.27114 -0.08425,0.7175 -0.187181,0.99189 -0.164767,0.43919 -0.132163,0.45419 0.27238,0.12521 0.392209,-0.31902 0.459547,-0.31524 0.459547,0.0257 0,0.21982 0.248208,0.62433 0.551554,0.89884 0.42918,0.3884 0.524122,0.73786 0.42795,1.57501 -0.134733,1.17284 0.326588,2.26064 0.7705,1.8167 0.146059,-0.14605 0.435903,-0.26554 0.644093,-0.26554 z M 39.855842,132.8579 c 0.08625,-0.22471 0.327517,-0.40859 0.536208,-0.40859 0.208675,0 0.379421,-0.1225 0.379421,-0.27235 0,-0.14982 -0.122577,-0.2724 -0.27238,-0.2724 -0.149806,0 -0.272366,-0.17361 -0.272366,-0.38583 0,-0.21224 -0.153225,-0.44805 -0.340475,-0.52402 -0.263828,-0.10695 -0.256476,-0.19695 0.03275,-0.39945 0.304891,-0.21348 0.281449,-0.31258 -0.128148,-0.54188 -0.432827,-0.24218 -0.36283,-0.30656 0.512066,-0.47069 0.557389,-0.10451 1.029077,-0.32967 1.0482,-0.50026 0.178426,-1.59207 0.233106,-1.51748 -1.501853,-2.04945 -1.16773,-0.35802 -1.693953,-0.66269 -1.761434,-1.01989 -0.244633,-1.29503 -1.752193,-1.9594 -2.082771,-0.91786 -0.09512,0.29963 -0.272909,0.54473 -0.395154,0.54473 -0.122293,0 -0.281578,0.22691 -0.354092,0.50418 -0.08782,0.336 -0.48459,0.56363 -1.189355,0.68246 -1.037245,0.17487 -2.782701,1.24668 -2.049774,1.25867 0.208218,0.004 0.304103,0.1768 0.219589,0.39705 -0.08253,0.21503 -0.0043,0.45245 0.175137,0.52764 0.218902,0.0919 0.152381,0.27575 -0.203556,0.56233 -0.463178,0.37291 -0.471618,0.42566 -0.06808,0.42566 0.253344,0 0.460619,0.12263 0.460619,0.2724 0,0.14982 0.214497,0.26843 0.476664,0.26372 0.453953,-0.008 0.453953,-0.0257 0,-0.37052 -0.495416,-0.37608 -0.625512,-0.71336 -0.27238,-0.70618 0.486407,0.009 0.914371,0.50248 1.040378,1.1973 0.07466,0.41185 0.03605,0.68714 -0.08581,0.61179 -0.272123,-0.16817 -0.245548,0.9497 0.03333,1.40089 0.244162,0.39509 1.704351,0.43595 1.940203,0.0544 0.251212,-0.40647 1.830614,-0.31255 2.435332,0.14487 0.682023,0.51582 1.48828,0.51171 1.68796,-0.008 z m 50.487678,-0.2951 c 0,-0.48098 -0.586353,-0.39719 -0.754696,0.10789 -0.05935,0.17789 0.08625,0.32347 0.323442,0.32347 0.237195,0 0.431254,-0.19409 0.431254,-0.43128 z m -58.481548,-0.65797 c 0.14972,-0.57247 -0.179184,-0.95583 -0.598025,-0.69698 -0.282049,0.17429 -0.06994,1.24146 0.246808,1.24146 0.114857,0 0.272909,-0.24498 0.351217,-0.54448 z m 14.641829,-0.2493 c -0.201967,-0.37736 -0.209376,-0.56807 -0.02202,-0.56807 0.155085,0 0.281964,-0.13758 0.281964,-0.30571 0,-0.21123 -0.126296,-0.20096 -0.40857,0.0334 -0.497748,0.4131 -0.515269,0.72426 -0.06808,1.2097 0.4693,0.50944 0.583192,0.31542 0.216772,-0.36926 z M 9.1760967,131.7844 c 0,-0.0661 -0.1225775,-0.19583 -0.2723813,-0.28843 -0.1498051,-0.0925 -0.272365,-0.0385 -0.272365,0.12006 0,0.15865 0.1225774,0.28845 0.272365,0.28845 0.1498065,0 0.2723813,-0.0541 0.2723813,-0.1202 z m 91.9760633,-0.47568 c -0.087,-0.21728 -0.15148,-0.15277 -0.16455,0.16454 -0.0115,0.28715 0.0525,0.44802 0.14305,0.3575 0.0905,-0.0906 0.10012,-0.32545 0.0215,-0.52204 z m -48.39624,-0.64554 c 0,-0.57717 -0.513881,-0.73506 -0.955405,-0.2935 -0.606133,0.60612 -0.492455,0.93101 0.274469,0.7844 0.374516,-0.0717 0.680936,-0.29249 0.680936,-0.4909 z m 51.93711,0.10086 c -0.087,-0.21725 -0.15149,-0.15274 -0.16456,0.16459 -0.0115,0.28711 0.0525,0.44802 0.14305,0.3575 0.0905,-0.0906 0.10012,-0.32546 0.0215,-0.52209 z m -39.68028,0.0511 c 0,-0.14982 -0.122578,-0.2724 -0.27238,-0.2724 -0.149807,0 -0.272367,0.12263 -0.272367,0.2724 0,0.14982 0.122578,0.27239 0.272367,0.27239 0.149805,0 0.27238,-0.1225 0.27238,-0.27239 z m -4.950861,-0.63543 c 0.05935,-0.30618 -0.09583,-0.45407 -0.476651,-0.45407 -0.310597,0 -0.564712,0.16341 -0.564712,0.36318 0,0.8342 0.882275,0.91121 1.041363,0.0908 z m -47.75349,-2.36069 c 0.09253,-0.14982 -0.02274,-0.27239 -0.256305,-0.27239 -0.233548,0 -0.424632,0.12263 -0.424632,0.27239 0,0.14983 0.115276,0.27236 0.25629,0.27236 0.141025,0 0.332052,-0.12263 0.424647,-0.27236 z m 89.747201,0.0158 c 0,-0.14102 -0.12257,-0.33202 -0.27238,-0.42462 -0.1498,-0.0925 -0.27236,0.0227 -0.27236,0.25629 0,0.23358 0.12257,0.42464 0.27236,0.42464 0.14981,0 0.27238,-0.11533 0.27238,-0.25631 z M 62.016637,125.9122 c 0,-0.14982 -0.191098,-0.2724 -0.424646,-0.2724 -0.233549,0 -0.348886,0.12263 -0.25629,0.2724 0.09253,0.14981 0.283665,0.27236 0.424632,0.27236 0.141025,0 0.256304,-0.12263 0.256304,-0.27236 z m 35.4086,-0.2724 c 0,-0.14976 -0.17661,-0.27234 -0.39248,-0.27234 -0.21587,0 -0.468241,0.12263 -0.560823,0.27234 -0.09253,0.14982 0.0841,0.2724 0.392481,0.2724 0.308451,0 0.560822,-0.12263 0.560822,-0.2724 z m -70.681024,-0.27234 c 0.09254,-0.14982 0.03848,-0.2724 -0.120144,-0.2724 -0.158646,0 -0.288457,0.12263 -0.288457,0.2724 0,0.14978 0.05407,0.27234 0.120144,0.27234 0.06607,0 0.195875,-0.12249 0.288457,-0.27234 z m 75.569637,-0.37143 c 0.13459,-0.35409 0.42618,-0.71341 0.64791,-0.79848 0.66116,-0.25374 1.54521,0.10857 1.54521,0.63314 0,0.39725 0.16642,0.4646 0.88521,0.35815 1.11767,-0.16549 1.60925,-0.76208 1.29941,-1.57701 -0.24977,-0.65695 -0.24064,-1.56482 0.0179,-1.78526 0.40729,-0.34717 1.65783,-2.76735 1.50758,-2.91762 -0.0931,-0.0932 -0.17301,0.004 -0.17757,0.2166 -0.006,0.26771 -0.0965,0.23418 -0.29642,-0.10951 -0.19413,-0.3338 -0.56909,-0.48033 -1.14931,-0.44909 -1.33375,0.0718 -1.4938,0.0253 -1.66758,-0.48543 -0.36124,-1.0616 -1.21198,-1.76751 -1.91689,-1.5906 -0.52811,0.13264 -0.68136,0.34614 -0.68136,0.94959 0,1.02828 -0.44151,1.32313 -1.82191,1.21662 -0.94173,-0.0726 -1.170859,0.005 -1.312127,0.45124 -0.213697,0.6733 0.04433,1.53081 0.770772,2.56152 0.376705,0.5345 0.561395,1.22297 0.561395,2.09266 0,1.03844 0.11142,1.35022 0.56046,1.56828 0.83285,0.4045 0.95936,0.36998 1.22728,-0.33473 z m -92.6667807,0.20684 c -0.090534,-0.0906 -0.3254291,-0.10005 -0.5220479,-0.0216 -0.2172863,0.0869 -0.1527378,0.15148 0.164552,0.16459 0.2871268,0.0108 0.448004,-0.0525 0.3574959,-0.14305 z m 1.1632667,-0.10789 c 0,-0.14978 0.17073,-0.27235 0.379422,-0.27235 0.601755,0 0.721456,-0.72336 0.290401,-1.75502 -0.524522,-1.25536 -0.52508,-1.25232 0.419669,-2.28672 0.962271,-1.05354 1.002419,-1.38114 0.27238,-2.22286 -0.299612,-0.34548 -0.544746,-0.48681 -0.544746,-0.31407 0,0.17272 -0.373557,0.31407 -0.830128,0.31407 -0.8622374,0 -2.1659836,-1.0896 -2.1659836,-1.8102 0,-0.74367 -1.0872617,-0.33964 -1.9393734,0.72067 -0.5147679,0.64056 -1.1092876,1.08993 -1.4427976,1.09056 -0.5176857,0 -2.3376881,0.92884 -2.3376881,1.19183 0,0.0613 0.3677078,0.50502 0.8171124,0.9861 0.749003,0.80181 1.1037811,1.90587 0.6128557,1.90716 -0.1124194,2.9e-4 -0.2299155,0.36696 -0.2612242,0.81474 -0.046197,0.66059 0.069369,0.84589 0.6128414,0.98229 0.36838,0.0925 0.6697806,0.26981 0.6697806,0.39416 0,0.40079 1.4558417,0.1386 1.9614128,-0.35318 0.6466535,-0.62914 1.0081961,-0.59042 1.9880018,0.21272 0.8494362,0.69625 1.4980642,0.8695 1.4980642,0.4001 z m 19.250884,0.094 c -0.09897,-0.099 -0.04792,-0.3391 0.113424,-0.53358 0.161406,-0.19447 0.196549,-0.51041 0.07809,-0.70208 -0.416366,-0.67368 -0.05607,-2.23291 0.738848,-3.19724 0.435331,-0.52815 0.791496,-1.03519 0.791496,-1.12684 0,-0.28656 -1.353206,-0.79857 -2.123706,-0.80356 -0.596336,-0.004 -0.83971,-0.2238 -1.280963,-1.15756 -0.366519,-0.77566 -0.745255,-1.18132 -1.157587,-1.23988 -0.420299,-0.0596 -0.612842,0.0523 -0.612842,0.35656 0,0.24397 -0.113708,0.37328 -0.252757,0.28733 -0.139021,-0.086 -0.337872,0.12128 -0.44191,0.4606 -0.294192,0.95944 -0.689975,1.34552 -1.062432,1.03643 -0.47,-0.39008 -2.171048,0.58871 -2.279118,1.31143 -0.06364,0.42554 0.177854,0.73657 0.905059,1.16562 0.86188,0.50853 0.966362,0.67828 0.79736,1.29562 -0.221291,0.80839 -0.199308,1.85586 0.04735,2.25488 0.09182,0.14858 0.449848,0.19913 0.79563,0.11222 0.345767,-0.0868 0.680007,-0.0661 0.742752,0.0461 0.06279,0.11209 0.07966,0.0583 0.03761,-0.11965 -0.117561,-0.49699 1.016591,-0.56101 2.004293,-0.11317 0.486877,0.22078 0.885221,0.47452 0.885221,0.5639 0,0.0894 0.327188,0.18963 0.727106,0.2227 0.399904,0.0333 0.646096,-0.0207 0.547106,-0.11993 z m 33.690132,-0.1517 c -0.07294,-0.11804 0.272954,-0.21647 0.76867,-0.21878 0.597079,-0.004 0.778652,-0.0819 0.537981,-0.23443 -0.286855,-0.18184 -0.262096,-0.26914 0.117561,-0.41487 0.328976,-0.12628 0.658897,0.0299 1.044239,0.49354 1.123762,1.35268 2.635728,0.23224 2.173222,-1.6105 -0.119279,-0.47519 -0.05907,-0.68219 0.199093,-0.6851 0.293492,-0.004 0.298111,-0.0498 0.02231,-0.22479 -0.459875,-0.29183 0.948024,-1.85208 1.556218,-1.72459 0.297209,0.0622 0.261409,-0.0338 -0.118575,-0.31822 -0.29937,-0.22407 -0.454497,-0.49725 -0.344695,-0.60704 0.330578,-0.33059 -0.686028,-0.9165 -1.606235,-0.92573 -0.620721,-0.005 -1.057783,-0.24254 -1.566144,-0.8467 -0.38783,-0.46092 -0.70515,-0.9512 -0.70515,-1.08948 0,-0.1383 -0.235394,-0.25149 -0.523107,-0.25149 -0.359755,0 -0.579144,0.25516 -0.702577,0.81713 -0.09869,0.44941 -0.353576,0.81713 -0.566386,0.81713 -0.212809,0 -0.386917,0.12249 -0.386917,0.27235 0,0.14981 -0.45963,0.27424 -1.021397,0.27655 -1.346369,0.005 -1.69112,0.26037 -1.873665,1.38523 -0.14031,0.865 -0.07695,0.97256 0.826781,1.40354 0.942604,0.4495 1.341048,1.2698 0.638314,1.31416 -0.270564,0.017 -0.270221,0.0499 0.0015,0.15947 0.188194,0.076 0.249482,0.28068 0.136162,0.45513 -0.29036,0.44718 -0.255832,1.34738 0.06636,1.73088 0.296237,0.35255 1.543059,0.37754 1.326159,0.0265 z m 23.656385,-1.52442 c -0.343465,-0.99053 -0.08167,-1.59533 0.966675,-2.23287 0.591602,-0.35977 0.879616,-0.74533 0.879616,-1.17761 0,-0.73065 -0.907993,-1.68861 -1.344711,-1.41872 -0.159245,0.0984 -0.289543,0.0419 -0.289543,-0.1256 0,-0.16749 -0.122577,-0.22881 -0.272366,-0.13617 -0.149807,0.0925 -0.27238,0.0235 -0.27238,-0.15346 0,-0.23978 -0.104122,-0.2354 -0.408556,0.0174 -0.513295,0.42599 -1.025503,0.0514 -1.501797,-1.09854 -0.184089,-0.4444 -0.463407,-0.80808 -0.620694,-0.80808 -0.461876,0 -1.282178,0.86345 -1.282178,1.34961 0,0.60379 -0.525266,1.09214 -0.98494,0.91576 -0.205587,-0.079 -0.314945,-0.23866 -0.243002,-0.35508 0.07194,-0.11641 -0.293463,-0.20033 -0.812021,-0.18651 -0.779611,0.0207 -0.989302,0.15846 -1.211352,0.79538 -0.219561,0.62987 -0.172247,0.86666 0.259422,1.29832 0.759516,0.7595 1.410717,2.471 1.223681,3.21616 -0.272966,1.0876 0.05407,1.59105 1.058113,1.62882 0.596865,0.0223 1.083842,-0.15179 1.399675,-0.50078 0.572121,-0.63219 0.886166,-0.66689 1.467969,-0.1622 0.236495,0.20519 0.797704,0.49253 1.247124,0.63861 0.704993,0.2291 0.829355,0.19438 0.90626,-0.25291 0.04905,-0.28515 -0.02518,-0.84826 -0.164995,-1.25141 z m 16.826853,1.44601 c 0,-0.227 -0.2421,-0.40857 -0.54475,-0.40857 -0.30263,0 -0.54474,0.18157 -0.54474,0.40857 0,0.22696 0.24211,0.40858 0.54474,0.40858 0.30265,0 0.54475,-0.18162 0.54475,-0.40858 z m -58.764672,-0.29356 c 0.641303,-0.0466 1.022956,0.0449 1.025574,0.24586 0.0028,0.21204 0.08196,0.19733 0.234692,-0.0437 0.178899,-0.28222 0.456999,-0.30115 1.241832,-0.0845 0.556217,0.15361 1.186006,0.21224 1.399546,0.13034 0.417595,-0.16022 0.549136,-1.72492 0.145015,-1.72492 -0.133732,0 -0.320409,-0.20111 -0.41475,-0.44693 -0.173047,-0.45098 0.248953,-1.2841 1.062504,-2.09769 0.520646,-0.52065 0.772845,-1.54097 0.380881,-1.54097 -0.150036,0 -0.197064,-0.12264 -0.104555,-0.2724 0.09997,-0.16174 -0.21823,-0.27235 -0.783315,-0.27235 -1.509105,0 -2.348987,-0.42929 -2.348987,-1.2006 0,-0.43011 -0.194688,-0.73111 -0.544746,-0.84222 -0.890572,-0.28265 -1.634239,0.0976 -1.634239,0.83548 0,0.80807 -0.257335,0.83466 -1.038132,0.10721 -0.704922,-0.6567 -0.781613,-0.37542 -0.14533,0.53298 l 0.450792,0.6436 -0.98514,-0.18479 c -0.787291,-0.1477 -1.09663,-0.0734 -1.540286,0.37032 -0.772544,0.77252 -0.693879,1.2487 0.272395,1.64895 1.157002,0.47925 1.436591,1.11935 1.075176,2.46158 -0.395884,1.47015 -0.146746,2.24951 0.638715,1.99806 0.324986,-0.10398 1.050504,-0.22256 1.612285,-0.26338 z m 54.270509,0.15743 c 0.09253,-0.14982 0.03848,-0.27239 -0.120144,-0.27239 -0.158645,0 -0.288456,0.12263 -0.288456,0.27239 0,0.14979 0.05407,0.27235 0.120144,0.27235 0.06607,0 0.19586,-0.1225 0.288456,-0.27235 z M 61.65794,123.40975 c -0.08696,-0.21726 -0.15148,-0.15274 -0.164552,0.16458 -0.01149,0.28711 0.05249,0.44798 0.143055,0.3575 0.09053,-0.0906 0.100255,-0.32545 0.02146,-0.52208 z m -5.633542,-0.0691 c 0,-0.0661 -0.122577,-0.19587 -0.272365,-0.28848 -0.149807,-0.0925 -0.272381,-0.0385 -0.272381,0.1202 0,0.15868 0.122577,0.28848 0.272381,0.28848 0.149805,0 0.272365,-0.0541 0.272365,-0.1202 z m 42.217967,0 c 0,-0.2875 -0.522722,-0.4083 -0.678192,-0.15672 -0.09412,0.15226 0.02002,0.27683 0.253558,0.27683 0.233549,0 0.424634,-0.0541 0.424634,-0.12019 z m -28.599264,-1.10558 c 0,-0.20704 -0.122577,-0.45218 -0.272366,-0.54474 -0.155099,-0.0959 -0.27238,0.13873 -0.27238,0.54474 0,0.40601 0.117277,0.64059 0.27238,0.54476 0.149806,-0.0925 0.272366,-0.33772 0.272366,-0.54476 z m -26.965025,-0.239 c 0,-0.20641 -0.169529,-0.51596 -0.376746,-0.68791 -0.291604,-0.242 -0.414721,-0.21374 -0.544746,0.1252 -0.279018,0.72709 -0.194317,0.93798 0.376746,0.93798 0.299613,0 0.544746,-0.16885 0.544746,-0.37519 z M 12.036018,121.8265 c 0.09253,-0.14978 -0.03004,-0.27236 -0.27238,-0.27236 -0.242387,0 -0.364947,0.12264 -0.272366,0.27236 0.09253,0.14982 0.215155,0.27237 0.272366,0.27237 0.05721,0 0.179799,-0.12263 0.27238,-0.27237 z m 96.953482,-0.79829 c 0.0862,-0.13945 0.0322,-0.33055 -0.12014,-0.42463 -0.15225,-0.0941 -0.27682,0.02 -0.27682,0.25354 0,0.47844 0.16344,0.54887 0.39693,0.17109 z m -79.263563,-3.03819 c -0.08768,-0.14189 -0.275542,-0.18626 -0.417439,-0.0986 -0.141882,0.0876 -0.186249,0.27552 -0.09854,0.41743 0.08768,0.14189 0.275556,0.18622 0.417453,0.0986 0.141882,-0.0877 0.186235,-0.27554 0.09854,-0.41745 z m -19.250399,-0.0276 c -0.05936,-0.1779 -0.253443,-0.37199 -0.43144,-0.43133 -0.1990362,-0.0664 -0.2599085,0.0583 -0.1581162,0.32344 0.1899832,0.4951 0.7529792,0.59814 0.5895562,0.10789 z m 39.927519,-0.0852 c -0.08625,-0.22469 -0.262397,-0.40857 -0.391464,-0.40857 -0.129013,0 -0.164138,0.18388 -0.07795,0.40857 0.08625,0.22472 0.262383,0.40857 0.391465,0.40857 0.129013,0 0.164137,-0.18385 0.07794,-0.40857 z m 51.107803,0 c 0,-0.22469 -0.17075,-0.40857 -0.37943,-0.40857 -0.20869,0 -0.44997,0.18388 -0.5362,0.40857 -0.10671,0.27788 0.0147,0.40857 0.37942,0.40857 0.29503,0 0.53621,-0.18377 0.53621,-0.40857 z m -60.008578,-0.45964 c -0.08696,-0.21728 -0.151495,-0.15272 -0.164567,0.16454 -0.01149,0.28715 0.05249,0.44802 0.143056,0.35751 0.09053,-0.0906 0.10012,-0.32541 0.02146,-0.52205 z m 64.362388,-0.017 c -0.003,-0.49555 -0.0548,-0.53464 -0.26821,-0.20428 -0.2174,0.33639 -0.26477,0.34039 -0.2682,0.0227 -0.003,-0.21222 -0.0829,-0.30712 -0.17917,-0.21084 -0.15696,0.15692 0.36363,1.00526 0.6169,1.00526 0.0565,0 0.10097,-0.27579 0.0987,-0.61284 z m -8.819484,-0.36438 c -0.100552,-0.26209 0.06192,-0.61702 0.412433,-0.90084 0.512279,-0.41483 0.532031,-0.51473 0.172761,-0.874 -1.129097,-1.12908 -0.692993,-2.48518 0.912598,-2.83779 0.60526,-0.13304 0.788879,-0.32673 0.788879,-0.83257 0,-0.5663 -0.128729,-0.65928 -0.912654,-0.65928 -1.595208,0 -2.613073,-0.52143 -3.117814,-1.59715 -0.345539,-0.73643 -0.658238,-1.01267 -1.219333,-1.07719 -0.648226,-0.0745 -0.81531,0.0586 -1.185235,0.94387 -0.517171,1.23776 -1.080854,1.71019 -2.054366,1.72179 -1.822648,0.0216 -2.110203,0.87647 -0.633265,1.88229 1.013774,0.69041 1.208748,1.38701 0.542887,1.93962 -0.587627,0.48768 -0.503026,1.2648 0.190611,1.75063 0.537538,0.37654 0.664417,0.37696 1.233377,0.004 0.348815,-0.22855 0.77226,-0.33023 0.940975,-0.22597 0.187322,0.11587 0.231088,0.0672 0.112424,-0.12479 -0.126715,-0.20503 0.03805,-0.31447 0.473519,-0.31447 0.367322,0 0.738419,0.18384 0.824649,0.40854 0.09097,0.23721 0.498593,0.40859 0.971711,0.40859 0.448218,0 0.972969,0.17919 1.166126,0.39817 0.461105,0.52281 0.583851,0.51842 0.379722,-0.0135 z m -61.227363,-0.52084 c 0.715905,-0.82337 1.123518,-0.85068 2.031853,-0.13615 0.380894,0.29965 0.918333,0.54085 1.194317,0.53608 0.735073,-0.0135 1.382298,-0.59826 1.297497,-1.17388 -0.0924,-0.62751 -0.385701,-0.94897 -0.391322,-0.42898 -0.0072,0.65369 -0.531544,-0.33615 -0.536408,-1.01232 -0.0043,-0.51205 0.76375,-1.03247 1.40564,-0.95318 0.101256,0.0135 0.263298,-0.33783 0.360099,-0.7785 0.188352,-0.85758 -0.55792,-2.25671 -1.102694,-2.06734 -0.442826,0.15393 -1.342709,-0.43374 -2.155773,-1.40788 -0.815654,-0.97723 -1.779926,-1.1874 -1.779926,-0.38793 0,0.27349 -0.287242,0.7671 -0.6383,1.09689 -0.609867,0.57299 -1.043081,0.74255 -2.679966,1.04915 -0.401892,0.0752 -0.798834,0.3144 -0.882104,0.53134 -0.08325,0.21697 -0.0482,0.33069 0.07809,0.25269 0.251126,-0.15519 0.853842,0.99143 0.853842,1.62438 0,0.21767 0.147074,0.39576 0.326844,0.39576 0.241574,0 0.247123,0.0796 0.02131,0.30556 -0.343221,0.34322 -0.153997,1.08731 0.355022,1.3961 0.184619,0.11195 0.277371,0.4266 0.206115,0.69907 -0.08581,0.32825 0.08353,0.59799 0.501996,0.79935 0.875195,0.42115 0.871191,0.42206 1.53392,-0.34016 z m 37.966205,0.0341 c 0.126864,0.0784 0.196877,-0.0197 0.155714,-0.2182 -0.122577,-0.59056 1.314932,-0.60533 1.737347,-0.0177 0.420685,0.58509 1.32011,0.99519 1.32011,0.60188 0,-0.14509 0.192999,-0.2638 0.428909,-0.2638 0.351245,0 0.402962,-0.24048 0.285595,-1.3283 -0.131447,-1.21815 -0.06536,-1.41936 0.796775,-2.42658 1.030194,-1.20354 1.151623,-1.62852 0.533088,-1.86586 -0.22385,-0.086 -0.358109,-0.23526 -0.298367,-0.33192 0.05979,-0.0967 -0.406626,-0.13466 -1.036373,-0.0845 -1.115294,0.0888 -1.161649,0.0588 -1.787249,-1.1576 -0.353247,-0.68681 -0.745571,-1.24876 -0.871821,-1.24876 -0.373328,0 -1.224939,0.96328 -1.122718,1.26991 0.140167,0.42032 -0.449433,0.78247 -1.923453,1.18151 -1.258408,0.34071 -2.000403,1.07262 -1.317993,1.30009 0.176767,0.0589 0.321381,0.27645 0.321381,0.48341 0,0.20696 0.245135,0.50745 0.544747,0.6678 0.540069,0.28905 0.809675,1.90662 0.317778,1.90662 -0.124863,0 -0.240228,0.15322 -0.256419,0.34047 -0.01616,0.18728 -0.08038,0.58561 -0.142741,0.88521 -0.147847,0.71125 0.544575,0.96328 1.411189,0.51366 0.370626,-0.19226 0.777623,-0.28547 0.90443,-0.20709 z m 26.823382,0.051 c -0.087,-0.21729 -0.15148,-0.15273 -0.16455,0.16458 -0.0115,0.28711 0.0525,0.44797 0.14306,0.3575 0.0905,-0.0906 0.10012,-0.32545 0.0215,-0.52208 z m -63.512988,0.0511 c -0.09253,-0.14982 -0.283679,-0.27239 -0.424646,-0.27239 -0.141024,0 -0.25629,0.12263 -0.25629,0.27239 0,0.14978 0.191083,0.27234 0.424632,0.27234 0.233549,0 0.348886,-0.12263 0.256304,-0.27234 z m 17.936012,-0.43376 c 0.665375,-0.31622 0.89203,-0.30924 1.584237,0.0488 0.444284,0.22974 1.123432,0.37974 1.509233,0.33327 0.574867,-0.0692 0.719397,-0.25101 0.800893,-1.00759 0.05464,-0.50773 -0.04248,-1.09411 -0.215842,-1.30307 -0.464665,-0.55984 0.210007,-1.65758 1.144959,-1.86296 0.849765,-0.18663 1.270864,-0.89099 0.670438,-1.12138 -0.216485,-0.0832 -0.4579,-0.3542 -0.536508,-0.60252 -0.115277,-0.3645 -0.432284,-0.43352 -1.644608,-0.35819 -1.570879,0.0975 -1.617434,0.0598 -1.514812,-1.23218 0.06636,-0.83484 -0.802896,-1.25255 -1.720242,-0.82672 -0.554858,0.25757 -0.714247,0.52846 -0.715892,1.21658 -0.0015,0.81047 -0.07681,0.88774 -0.887338,0.91537 -0.486877,0.0166 -1.133831,0.0108 -1.437692,-0.0108 -0.874322,-0.0661 -0.824521,1.20784 0.09068,2.31807 0.595149,0.72203 0.737447,1.13381 0.650172,1.88142 -0.06151,0.52638 -0.204157,0.95708 -0.31712,0.95708 -0.162221,0 -0.195503,1.01657 -0.0422,1.28694 0.08181,0.1443 1.869561,-0.29282 2.581649,-0.63121 z m -38.485651,0.02 c 0.644908,-0.22751 1.242517,-0.30648 1.328018,-0.17547 0.223694,0.34284 2.125064,0.64915 2.766282,0.44563 0.400475,-0.1271 0.497576,-0.31972 0.367608,-0.72918 -0.09712,-0.30608 -0.197634,-0.69452 -0.223322,-0.86327 -0.02574,-0.16874 -0.145273,-0.46462 -0.265744,-0.65751 -0.14174,-0.22694 0.125295,-0.73191 0.756684,-1.43076 1.067623,-1.18174 1.187122,-1.55919 0.568732,-1.79645 -0.223852,-0.086 -0.339189,-0.26592 -0.256304,-0.40003 0.08296,-0.13413 0.02818,-0.24382 -0.121712,-0.24382 -0.149807,0 -0.351746,0.12845 -0.448761,0.28541 -0.504385,0.81613 -2.30096,-0.53324 -2.305337,-1.73145 -0.0011,-0.27099 -0.124429,-0.41697 -0.274167,-0.32438 -0.149806,0.0925 -0.272366,0.0385 -0.272366,-0.1202 0,-0.52068 -1.048688,-0.30137 -1.225683,0.25628 -0.09512,0.29963 -0.277473,0.54477 -0.405281,0.54477 -0.127864,0 -0.314416,0.37355 -0.414706,0.83013 -0.142455,0.64858 -0.261024,0.76483 -0.54213,0.53152 -0.248895,-0.20657 -0.414234,-0.21059 -0.536337,-0.0135 -0.09712,0.15709 -0.536978,0.28559 -0.977545,0.28559 -0.440579,0 -0.801049,0.1298 -0.801049,0.28845 0,0.15868 -0.122578,0.2127 -0.272382,0.1202 -0.563138,-0.34805 -0.237037,0.1726 0.793199,1.26636 1.027219,1.09054 1.060143,1.18367 0.9152,2.58808 -0.171918,1.66565 -0.07394,1.72092 1.847064,1.04314 z m 16.513894,-0.18208 c -0.08696,-0.2173 -0.151479,-0.15274 -0.164552,0.16457 -0.01149,0.28711 0.05249,0.44798 0.143055,0.35746 0.09053,-0.0906 0.10012,-0.3254 0.02146,-0.52203 z m 68.724543,-0.085 c 0,-0.22471 -0.11871,-0.40857 -0.26382,-0.40857 -0.14511,0 -0.19328,0.18386 -0.10699,0.40857 0.0862,0.2247 0.20495,0.40854 0.26382,0.40854 0.0589,0 0.10699,-0.18384 0.10699,-0.40854 z M 79.176184,115.0173 c 0,-0.14978 -0.122578,-0.27236 -0.272366,-0.27236 -0.149807,0 -0.27238,0.12264 -0.27238,0.27236 0,0.14982 0.122577,0.2724 0.27238,0.2724 0.149806,0 0.272366,-0.12263 0.272366,-0.2724 z m -35.494917,-0.86817 c -0.08696,-0.2173 -0.151494,-0.15274 -0.164552,0.16458 -0.01149,0.28709 0.05249,0.44797 0.143054,0.35745 0.09053,-0.0906 0.10012,-0.3254 0.02146,-0.52203 z m 16.802351,-0.36462 c 0.180428,-0.47019 -0.865842,-0.83526 -1.261068,-0.44004 -0.202268,0.20227 -0.188194,0.40802 0.04735,0.69181 0.373286,0.44979 0.993937,0.32106 1.21374,-0.25177 z m 11.202292,0.4157 c 0.09253,-0.14982 -0.03003,-0.27238 -0.27238,-0.27238 -0.242387,0 -0.364962,0.1225 -0.272367,0.27238 0.09253,0.14979 0.215156,0.27236 0.272367,0.27236 0.05721,0 0.179784,-0.12263 0.27238,-0.27236 z m -50.389175,-0.27238 c 0.09253,-0.14982 0.04577,-0.27236 -0.103986,-0.27236 -0.149807,0 -0.348128,0.12263 -0.440708,0.27236 -0.09253,0.14982 -0.04577,0.27238 0.103986,0.27238 0.149793,0 0.348114,-0.12249 0.44071,-0.27238 z m 57.607083,0 c 0,-0.14982 -0.122578,-0.27236 -0.27238,-0.27236 -0.149807,0 -0.272367,0.12263 -0.272367,0.27236 0,0.14982 0.122578,0.27238 0.272367,0.27238 0.149806,0 0.27238,-0.12249 0.27238,-0.27238 z M 90.6159,113.82345 c 0,-0.20723 -0.30642,-0.43538 -0.680936,-0.50697 -0.648155,-0.12384 -0.929646,0.27194 -0.499349,0.70221 0.329534,0.32956 1.180285,0.18884 1.180285,-0.19524 z m 7.779674,-0.0876 c 0.312285,-0.31227 0.360285,-0.49922 0.146489,-0.57049 -0.354622,-0.1183 -1.116826,0.42501 -1.116826,0.79596 0,0.38489 0.468972,0.2759 0.970337,-0.22547 z m -66.612453,-0.62503 c 0,-0.14978 -0.122577,-0.27236 -0.272366,-0.27236 -0.149807,0 -0.27238,0.12263 -0.27238,0.27236 0,0.14982 0.122577,0.27238 0.27238,0.27238 0.149806,0 0.272366,-0.12249 0.272366,-0.27238 z M 88.4369,112.71836 c 0,-0.2875 -0.522705,-0.40829 -0.67819,-0.15672 -0.09412,0.15223 0.02002,0.27681 0.253558,0.27681 0.233549,0 0.424632,-0.0541 0.424632,-0.1202 z m -26.420263,-1.67947 c 0,-0.0589 -0.183861,-0.10695 -0.40857,-0.10695 -0.22471,0 -0.408556,0.11871 -0.408556,0.26384 0,0.14509 0.183846,0.19327 0.408556,0.10695 0.224709,-0.0863 0.40857,-0.20496 0.40857,-0.2638 z m 9.163687,-0.5957 c -0.278072,-0.0589 -0.624425,0.0108 -0.769683,0.15692 -0.170546,0.17052 0.0085,0.20848 0.505585,0.10708 0.570076,-0.11628 0.638557,-0.18476 0.264098,-0.2641 z m 20.933625,-0.60083 c 0.09253,-0.14982 -0.02274,-0.2724 -0.256289,-0.2724 -0.233563,0 -0.424647,0.12263 -0.424647,0.2724 0,0.14977 0.115276,0.27235 0.256304,0.27235 0.141025,0 0.332052,-0.12264 0.424632,-0.27235 z M 52.851075,109.0511 c -0.552769,-0.6456 -0.912281,-0.7349 -0.912281,-0.22666 0,0.30125 1.079509,1.00263 1.313286,0.85327 0.0482,-0.0306 -0.132298,-0.31273 -0.401005,-0.62661 z m 8.513003,0.0479 c -0.276887,-0.27685 -0.505329,0.14003 -0.278159,0.50755 0.171603,0.27766 0.235765,0.27787 0.328017,0 0.06307,-0.18925 0.04062,-0.41813 -0.04992,-0.50865 z m 41.054772,-0.7747 c 0.42844,-0.89843 1.22078,-1.36033 0.90012,-0.52474 -0.0955,0.24885 -3.8e-4,0.40856 0.24324,0.40856 0.22,0 0.40001,-0.1298 0.40001,-0.28845 0,-0.15863 0.12258,-0.21271 0.27237,-0.12006 0.14981,0.0925 0.27238,0.4675 0.27238,0.83317 0,0.73376 0.66137,0.9189 0.91561,0.25631 0.0863,-0.22471 0.31724,-0.40853 0.51336,-0.40853 0.19611,0 0.56767,-0.24655 0.82568,-0.5479 0.51544,-0.60196 0.62499,-1.35875 0.19671,-1.35875 -0.1498,0 -0.27238,-0.18382 -0.27238,-0.40854 0,-0.22471 -0.1455,-0.40857 -0.32332,-0.40857 -0.17784,0 0.0289,-0.36769 0.45951,-0.81711 0.43057,-0.44942 0.92619,-0.81712 1.10137,-0.81712 0.17658,0 0.30559,-0.35216 0.2895,-0.79036 -0.016,-0.43469 -0.11242,-0.73913 -0.21446,-0.6765 -0.10197,0.0626 -0.26245,-0.009 -0.35653,-0.16295 -0.0941,-0.15223 -0.62348,-0.27872 -1.17641,-0.28097 -1.29897,-0.005 -1.95238,-0.38343 -1.47972,-0.85613 0.44656,-0.44655 0.43156,-0.79269 -0.0267,-0.61682 -0.20071,0.0769 -0.52213,-0.0495 -0.71429,-0.28096 -0.19216,-0.23151 -0.51821,-0.42095 -0.72457,-0.42095 -0.42863,0 -1.48901,0.97442 -1.28377,1.17967 0.0745,0.0745 0.001,0.38592 -0.16216,0.69187 -0.22684,0.42387 -0.52288,0.53861 -1.24318,0.48188 -0.51999,-0.041 -1.03125,-0.16028 -1.136132,-0.26515 -0.104839,-0.10478 -0.350674,0.18973 -0.546177,0.65475 -0.359842,0.85581 -0.11099,1.88735 0.45534,1.88735 0.488879,0 0.880659,1.09331 0.539209,1.50474 -0.243129,0.29294 -0.204111,0.63341 0.1697,1.48065 0.26698,0.60511 0.59163,1.10021 0.72145,1.10021 0.12986,0 0.176,0.0971 0.10268,0.21584 -0.0734,0.11871 0.0848,0.2323 0.35159,0.25238 0.30354,0.0227 0.65148,-0.31265 0.93002,-0.89678 z m -91.112239,-0.46907 c 0.405508,-0.6683 0.406282,-0.7925 0.0085,-1.4821 -0.473049,-0.82163 -0.396801,-1.43358 0.17864,-1.43358 0.570306,0 1.222436,-0.79069 1.222436,-1.48214 0,-0.51345 -0.230059,-0.69047 -1.27899,-0.98418 -0.703448,-0.19692 -1.132443,-0.40695 -0.953316,-0.46662 0.179127,-0.0596 0.325686,-0.22094 0.325686,-0.35825 0,-0.37779 -1.0241719,-0.29909 -1.1814877,0.0909 -0.075512,0.18729 -0.1470591,0.0646 -0.1588734,-0.27235 -0.012845,-0.35365 -0.1943311,-0.61287 -0.4300676,-0.61287 -0.2247091,0 -0.4085563,-0.18581 -0.4085563,-0.41289 0,-0.29276 -0.2423453,-0.3944 -0.8328601,-0.3494 -0.9442633,0.0719 -1.1955757,0.31027 -1.4499634,1.37516 -0.1341591,0.56165 -0.3439223,0.74901 -0.8385949,0.74901 -0.3628163,0 -0.7354298,0.12263 -0.8280111,0.27237 -0.092539,0.1498 -0.4062391,0.27237 -0.6970128,0.27237 -0.4226157,0 -0.5286701,0.19126 -0.5286701,0.95334 0,0.5243 0.091967,0.95738 0.2042852,0.96234 0.1124195,0.004 0.481643,0.24041 0.8206595,0.5232 l 0.6163742,0.5141 -0.5966508,1.01125 c -0.5792159,0.98172 -0.581776,1.02213 -0.087675,1.38347 0.6632011,0.48494 1.7086845,0.47011 2.683084,-0.038 1.0615022,-0.5536 1.3414199,-0.51655 2.0235013,0.26791 0.7061656,0.81218 1.508517,0.63501 2.186779,-0.48282 z m 57.43645,-1.24769 c -0.0379,-0.24329 -0.153052,-0.57676 -0.255747,-0.7411 -0.102688,-0.16436 0.17664,-0.6469 0.620723,-1.07235 0.444099,-0.42546 0.809318,-0.96515 0.811606,-1.19927 0.0043,-0.37431 0.03605,-0.37639 0.268204,-0.017 0.14523,0.22471 0.265916,0.27035 0.268204,0.10141 0.0072,-0.50725 -0.637929,-0.88413 -1.842057,-1.07667 -0.925512,-0.14801 -1.304835,-0.40325 -2.029294,-1.36539 -0.803667,-1.0674 -1.84433,-1.599761 -1.84433,-0.9435 0,0.14117 -0.221907,0.21399 -0.493114,0.16177 -0.405567,-0.0781 -0.480613,0.0638 -0.422688,0.79948 0.06979,0.8861 0.05779,0.8956 -1.293334,1.02544 -0.75009,0.0721 -1.502698,0.26994 -1.672471,0.43973 -0.469014,0.46902 -0.499893,1.94719 -0.04077,1.94719 0.209792,0 0.381438,0.1225 0.381438,0.27239 0,0.14978 0.131299,0.27236 0.291832,0.27236 0.924054,0 1.399575,1.56641 0.661471,2.17901 -0.224709,0.18648 -0.408556,0.46705 -0.408556,0.6235 0,0.15639 0.07981,0.20461 0.177338,0.10708 0.09755,-0.0976 0.3366,0.0352 0.531231,0.29505 0.335713,0.44818 0.397686,0.44795 1.206602,-0.004 1.057328,-0.59106 2.267821,-0.61273 2.82983,-0.0508 0.234265,0.23425 0.54097,0.3548 0.681567,0.26793 0.140595,-0.0868 0.343035,-0.0166 0.449848,0.15625 0.236608,0.3828 1.223236,-1.53194 1.122374,-2.17822 z m 18.647312,0.41808 c -0.03533,-0.90293 0.112843,-1.22909 0.910694,-2.00395 0.524137,-0.50902 0.952961,-1.11656 0.952961,-1.35007 0,-0.27183 0.152079,-0.36623 0.422701,-0.26241 0.254072,0.0976 0.352775,0.0491 0.247423,-0.12141 -0.0964,-0.15599 -0.314632,-0.23719 -0.484933,-0.18043 -0.170289,0.0568 -0.550625,-0.12128 -0.845161,-0.39572 -0.318463,-0.29668 -0.741237,-0.43365 -1.043009,-0.33785 -0.364489,0.11573 -0.849493,-0.19085 -1.721414,-1.08799 -0.667663,-0.68696 -1.272023,-1.24902 -1.343022,-1.24902 -0.349386,0 -1.22481,0.99283 -1.22481,1.38908 0,1.09399 -1.609595,1.30024 -2.34102,0.29994 -0.24974,-0.34149 -0.359485,-0.25457 -0.65166,0.51632 -0.420484,1.10939 -0.361371,1.93704 0.159575,2.2343 0.209964,0.11966 0.566029,0.57419 0.791268,1.00976 0.341348,0.66007 0.3489,0.84858 0.04533,1.13217 -0.298798,0.27908 -0.301473,0.46115 -0.01487,1.0135 0.192128,0.37033 0.306005,0.74338 0.253071,0.82902 -0.256304,0.41471 1.662716,0.10546 1.978091,-0.31887 0.37154,-0.49975 2.127238,-0.69849 1.823077,-0.20635 -0.09253,0.14978 0.03004,0.27235 0.272381,0.27235 0.242387,0 0.370368,0.11385 0.284408,0.25291 -0.08596,0.13916 0.121293,0.29414 0.460575,0.3446 0.792727,0.11789 1.121316,-0.42963 1.068411,-1.77989 z m -61.327096,1.04622 c 0.773345,-0.82321 1.336643,-0.85724 2.253316,-0.13615 0.380881,0.29959 1.073875,0.54474 1.53997,0.54474 0.913942,0 0.881632,0.15829 0.419841,-2.05666 -0.134584,-0.64572 0.699216,-2.27668 1.292605,-2.52831 0.475693,-0.2017 0.203828,-1.13489 -0.330634,-1.13489 -0.36316,0 -0.544748,-0.18157 -0.544748,-0.54474 0,-0.68287 -0.146917,-0.68287 -0.879857,0 -0.32161,0.2996 -0.663474,0.54474 -0.759716,0.54474 -0.176309,0 -0.490939,-0.59489 -1.044411,-1.9747 -0.507045,-1.264089 -1.634453,-0.856673 -2.080197,0.75171 -0.161892,0.58417 -0.257534,0.6797 -0.338287,0.33779 -0.06192,-0.26218 -0.28744,-0.47667 -0.501165,-0.47667 -0.477225,0 -0.522722,0.53604 -0.04805,0.56688 0.5666,0.0368 -1.245435,0.76949 -1.935755,0.78269 -0.504355,0.009 -0.599011,0.11438 -0.44151,0.48897 0.110274,0.26212 0.224939,0.71476 0.254845,1.00585 0.03161,0.30774 0.366421,0.63318 0.800093,0.77774 0.554915,0.18498 0.694953,0.36316 0.547336,0.6965 -0.109125,0.24634 -0.252629,0.90677 -0.318937,1.46756 -0.10327,0.87367 -0.02874,1.05646 0.520733,1.27655 0.901785,0.36117 0.885594,0.36513 1.594592,-0.38954 z m 19.310027,0.18415 c 0.28684,-0.27217 0.428808,-0.28173 0.5788,-0.0391 0.152568,0.24686 0.245205,0.2464 0.398688,-0.004 0.125714,-0.20348 0.466883,-0.25248 0.919262,-0.13196 2.492858,0.66358 2.419985,0.67132 2.368181,-0.25248 -0.02618,-0.46649 -0.197663,-1.12397 -0.381138,-1.46103 -0.26706,-0.49064 -0.26377,-0.61365 0.01645,-0.61703 0.253887,-0.004 0.241716,-0.0726 -0.04433,-0.25366 -0.318406,-0.20143 -0.263111,-0.30928 0.287056,-0.55994 1.19825,-0.54597 1.690019,-2.17834 0.65625,-2.17834 -0.19034,0 -0.488151,-0.1712 -0.661814,-0.38043 -0.173649,-0.20927 -0.525724,-0.33021 -0.782372,-0.26881 -0.618676,0.14795 -0.983552,-0.1344 -1.448547,-1.12118 -0.536737,-1.138994 -1.441595,-1.220766 -1.905703,-0.1723 -0.287099,0.64864 -0.453453,0.76069 -0.830086,0.55908 -0.677203,-0.3624 -0.952086,0.23811 -0.327088,0.71455 0.449519,0.34271 0.368338,0.36669 -0.752106,0.22241 -1.108229,-0.14273 -1.309555,-0.086 -1.711045,0.48294 -0.444598,0.62993 -0.429753,0.66653 0.647397,1.59797 1.196462,1.03466 1.293406,1.38175 0.702304,2.51487 -0.247264,0.47398 -0.289386,0.80555 -0.115993,0.91276 0.14982,0.0925 0.218359,0.30917 0.152324,0.48128 -0.17066,0.44473 1.757814,0.40356 2.233407,-0.0476 z m -36.8781436,-0.048 c 0.092535,-0.14978 -0.030029,-0.27235 -0.2723812,-0.27235 -0.2423872,0 -0.364962,0.12263 -0.2723664,0.27235 0.092535,0.14983 0.2151555,0.27239 0.2723664,0.27239 0.057206,0 0.1797857,-0.1225 0.2723812,-0.27239 z m 3.9494136,-0.44187 c 0,-0.36194 -0.07394,-0.38055 -0.408556,-0.1029 -0.224709,0.18648 -0.408556,0.38534 -0.408556,0.44192 0,0.0565 0.183847,0.10289 0.408556,0.10289 0.22471,0 0.408556,-0.19886 0.408556,-0.44189 z m 68.56447,0.27733 c -0.09053,-0.0906 -0.325429,-0.10019 -0.522048,-0.0216 -0.217286,0.0869 -0.152753,0.15148 0.164552,0.16453 0.287127,0.0108 0.448004,-0.0525 0.357496,-0.14304 z m -30.796484,-1.5378 c -0.07553,-0.18729 -0.137307,-0.0341 -0.137307,0.34043 0,0.37451 0.06179,0.52774 0.137307,0.34046 0.07551,-0.18724 0.07551,-0.49366 0,-0.68089 z m 46.055061,0.18152 c -0.259565,-0.25956 -0.77994,0.16087 -0.58651,0.47387 0.114993,0.18599 0.267331,0.1813 0.462935,-0.0143 0.160362,-0.16034 0.215971,-0.36715 0.123578,-0.45956 z m -43.033677,0.0909 c -0.172518,-0.52381 -1.29515,-0.59927 -1.29515,-0.0871 0,0.2781 0.245905,0.42751 0.703635,0.42751 0.441123,0 0.661799,-0.12696 0.591515,-0.34048 z M 3.4562376,106.02921 c 0,-0.14982 -0.054065,-0.27239 -0.1201424,-0.27239 -0.066078,0 -0.1958609,0.1225 -0.2884422,0.27239 -0.092539,0.14978 -0.038474,0.27236 0.1201424,0.27236 0.1586597,0 0.2884565,-0.12263 0.2884565,-0.27236 z m 39.6786244,-0.12777 c -0.131866,-0.3958 -1.06914,-0.35034 -1.205402,0.0585 -0.07381,0.22123 0.132448,0.31894 0.592961,0.2808 0.388317,-0.0322 0.66393,-0.1848 0.612441,-0.33926 z m 65.730078,-1.39946 c 0,-0.059 -0.18385,-0.10695 -0.40856,-0.10695 -0.22471,0 -0.40855,0.11871 -0.40855,0.26384 0,0.14513 0.18384,0.19327 0.40855,0.10695 0.22471,-0.0863 0.40856,-0.20496 0.40856,-0.26384 z m -58.089412,-2.45062 c -0.09053,-0.0906 -0.325429,-0.10005 -0.522048,-0.0216 -0.217273,0.0869 -0.152739,0.1515 0.164566,0.16457 0.287126,0.0108 0.447989,-0.0525 0.357482,-0.14307 z"
         style="opacity:1;fill:#000080;fill-opacity:1;stroke:none;stroke-width:0.10294449;stroke-miterlimit:4;stroke-dasharray:none;stroke-opacity:1;paint-order:fill markers stroke" />
    </g>
  </g>
</svg>
